<svg width="636" height="474" fill="none" xmlns="http://www.w3.org/2000/svg"><path d="M636 416.552H0v.318h636v-.318zm-63.728 20.468h-27.577v.318h27.577v-.318zm-133.851-6.602h-43.388v.318h43.388v-.318zm122.684-5.203h-56.642v.318h56.642v-.318zm-341.023 6.411h-14.17v.318h14.17v-.318zm-25.504 0h-48.832v.318h48.832v-.318zm-74.998-5.368H84.346v.318h35.234v-.318zm155.26-240.619l.572-16.716-10.265-3.358c-.419-5.712-1.373-11.347-2.734-16.792l8.7-6.411-5.915-15.698-10.761.865a99.397 99.397 0 00-8.955-14.439l5.572-9.299-11.461-12.225-9.616 4.923c-4.338-3.676-8.904-7.022-13.789-9.96l1.552-10.673-15.264-6.933-6.996 8.192a102.596 102.596 0 00-16.561-3.88l-2.595-10.47-16.765-.572-3.308 10.266c-5.762.47-11.346 1.374-16.79 2.735l-6.462-8.65-15.696 5.864.865 10.762a103.087 103.087 0 00-14.437 8.994l-9.26-5.572-12.275 11.411 4.922 9.668a98.432 98.432 0 00-9.921 13.79l-10.672-1.603-6.971 15.265 8.243 6.997c-1.73 5.33-3.066 10.889-3.88 16.563l-10.507 2.646-.572 16.715 10.303 3.359c.42 5.749 1.374 11.347 2.735 16.779l-8.7 6.411 5.914 15.698 10.761-.865a99.393 99.393 0 008.955 14.438l-5.571 9.299 11.46 12.225 9.617-4.923a103.167 103.167 0 0013.788 9.974l-1.602 10.673 15.264 6.933 7.034-8.193a102.55 102.55 0 0016.561 3.88l2.595 10.47 16.765.572 3.307-10.266c5.75-.471 11.347-1.374 16.778-2.735l6.411 8.65 15.696-5.864-.826-10.762c5.075-2.608 9.858-5.623 14.437-9.007l9.26 5.572 12.275-11.411-4.923-9.668a98.507 98.507 0 009.922-13.789l10.672 1.603 6.97-15.266-8.242-6.996c1.73-5.33 3.065-10.851 3.879-16.563l10.507-2.633zm-112.941 54.153c-36.608-1.259-65.266-31.955-64.02-68.566 1.26-36.65 31.953-65.323 68.561-64.064 36.608 1.26 65.267 31.956 64.02 68.605-1.259 36.611-31.965 65.272-68.561 64.025zM560.9 130.353l4.211-3.931-1.679-3.32a35.132 35.132 0 003.421-4.758l3.689.56 2.391-5.266-2.836-2.417a33.987 33.987 0 001.335-5.699l3.626-.904.19-5.775-3.548-1.145a35.628 35.628 0 00-.929-5.788l2.989-2.226-2.035-5.407-3.701.293a35.961 35.961 0 00-3.091-4.987l1.92-3.18-3.943-4.223-3.307 1.692a35.983 35.983 0 00-4.757-3.422l.534-3.69-5.254-2.404-2.416 2.837a35.724 35.724 0 00-5.712-1.323l-.903-3.613-5.775-.203-1.157 3.562c-1.946.152-3.88.458-5.788.941l-2.213-2.99-5.419 2.023.306 3.715a34.504 34.504 0 00-4.987 3.09l-3.205-1.92-4.21 3.93 1.691 3.334a34.05 34.05 0 00-3.421 4.757l-3.689-.56-2.392 5.267 2.837 2.417a34.074 34.074 0 00-1.336 5.7l-3.625.903-.191 5.775 3.549 1.145c.153 1.946.458 3.88.929 5.788l-2.989 2.213 2.035 5.407 3.714-.28a35.995 35.995 0 003.091 4.987l-1.921 3.18 3.944 4.223 3.307-1.692a35.807 35.807 0 004.757 3.422l-.547 3.677 5.253 2.404 2.417-2.824c1.87.598 3.778 1.03 5.712 1.323l.903 3.613 5.775.203 1.157-3.562a34.503 34.503 0 005.788-.941l2.213 2.989 5.419-2.022-.306-3.715a34.038 34.038 0 004.987-3.091l3.192 1.908zm-30.044-24.335c-3.104-3.32-2.926-8.536.394-11.627 3.32-3.104 8.535-2.926 11.639.394 3.103 3.32 2.925 8.536-.407 11.64a8.235 8.235 0 01-11.626-.407zm-123.83 195.955l-13.152-9.083c0-.013 0-.025-.013-.025a71.503 71.503 0 00-5.292-13.701l3.371-13.23-19.08-20.43-13.432 2.455a72.061 72.061 0 00-13.293-6.208c-.012 0-.025 0-.038-.012l-8.166-13.752-27.933-.954-9.082 13.154c-.013 0-.038.013-.051.013a72.198 72.198 0 00-13.687 5.279l-13.216-3.371-20.428 19.081 2.455 13.408s0 .013-.013.013c-2.531 4.211-4.592 8.676-6.207 13.344l-13.751 8.167-.954 27.949 13.166 9.095c1.297 4.809 3.04 9.401 5.278 13.764l-3.358 13.192 19.08 20.43 13.344-2.442a72.792 72.792 0 0013.419 6.22h.013l8.153 13.726 27.934.954 9.082-13.14a72.256 72.256 0 0013.801-5.292l13.165 3.358 20.428-19.082-2.455-13.408c2.532-4.21 4.592-8.675 6.208-13.357l13.75-8.167.954-27.948zm-87.068 42.476c-17.363-.598-30.935-15.177-30.337-32.503.597-17.364 15.124-30.937 32.499-30.339 17.363.598 30.935 15.125 30.337 32.502-.598 17.313-15.136 30.938-32.499 30.34zm117.036-121.83h-.089l-22.031-.75a2.648 2.648 0 01-2.214-1.31l-5.927-9.987a59.582 59.582 0 01-9.26-4.299l-9.553 1.743a2.661 2.661 0 01-2.442-.815l-15.048-16.105a2.683 2.683 0 01-.636-2.493l2.404-9.426a57.823 57.823 0 01-3.638-9.503l-9.578-6.615a2.673 2.673 0 01-1.157-2.302l.75-22.033a2.646 2.646 0 011.31-2.214l10.011-5.94a58.196 58.196 0 014.286-9.223l-1.755-9.579a2.666 2.666 0 01.814-2.443l16.116-15.049a2.685 2.685 0 012.494-.636l9.45 2.417a59.96 59.96 0 019.477-3.65l6.614-9.58c.522-.75 1.374-1.22 2.303-1.157l22.031.75a2.645 2.645 0 012.213 1.31l5.94 10.012a60.27 60.27 0 019.197 4.287l9.603-1.755a2.664 2.664 0 012.443.814l15.047 16.117c.624.675.865 1.616.636 2.494l-2.416 9.464a59.956 59.956 0 013.65 9.477l9.566 6.615a2.707 2.707 0 011.157 2.303l-.75 22.033a2.645 2.645 0 01-1.311 2.213l-10.01 5.941a57.97 57.97 0 01-4.287 9.21l1.756 9.592a2.661 2.661 0 01-.815 2.442l-16.103 15.036a2.673 2.673 0 01-2.493.637l-9.413-2.405a59.879 59.879 0 01-9.527 3.651l-6.602 9.566a2.73 2.73 0 01-2.213 1.145zm-20.467-6.068l19.093.649 6.322-9.159a2.697 2.697 0 011.514-1.069 53.742 53.742 0 0010.366-3.981s.013 0 .013-.013a2.663 2.663 0 011.857-.191l8.955 2.277 13.967-13.039-1.667-9.121a2.67 2.67 0 01.344-1.87c1.844-3.053 3.409-6.411 4.643-9.96a2.678 2.678 0 011.195-1.489l9.566-5.686.648-19.094-9.158-6.323a2.653 2.653 0 01-1.018-1.361c-.025-.064-.038-.14-.063-.216a53.945 53.945 0 00-3.956-10.241 2.679 2.679 0 01-.204-1.882l2.29-9.007-13.038-13.968-9.146 1.679c-.636.115-1.297 0-1.857-.33a55.173 55.173 0 00-9.985-4.669 2.274 2.274 0 01-.56-.267 2.823 2.823 0 01-.903-.916l-5.686-9.579-19.092-.649-6.322 9.16a2.69 2.69 0 01-1.578 1.08 53.77 53.77 0 00-10.239 3.957 2.681 2.681 0 01-1.883.204l-9.005-2.29-13.967 13.039 1.666 9.121c.102.572.026 1.17-.241 1.679-.039.076-.077.14-.128.216-1.844 3.066-3.409 6.437-4.642 9.999a2.644 2.644 0 01-1.171 1.425l-9.578 5.686-.648 19.094 9.171 6.336c.521.356.903.89 1.068 1.513.992 3.664 2.315 7.137 3.956 10.33.089.178.165.382.216.572.102.433.102.878 0 1.311l-2.289 8.968 13.038 13.968 9.082-1.667c.636-.114 1.297 0 1.844.331 3.231 1.908 6.615 3.486 10.036 4.669.624.19 1.158.61 1.488 1.183l5.686 9.591zm11.792-24.132c-.471 0-.942-.012-1.412-.025-22.197-.763-39.623-19.438-38.872-41.623.763-22.199 19.461-39.626 41.619-38.876 22.197.763 39.623 19.438 38.873 41.623-.369 10.737-4.898 20.698-12.758 28.038-7.518 7.034-17.223 10.863-27.45 10.863zm-.051-75.168c-18.699 0-34.217 14.883-34.866 33.711-.661 19.234 14.45 35.415 33.683 36.076 9.324.318 18.202-3.014 25.02-9.388 6.805-6.36 10.736-14.998 11.054-24.297.661-19.234-14.45-35.415-33.683-36.077-.407-.025-.801-.025-1.208-.025z" fill="#EBEBEB"/><path d="M487.735 64.076l-9.12-2.456-2.455-9.12 3.574-3.575 3.766 7.81 7.81 3.766-3.575 3.575z" fill="#E0E0E0"/><path d="M488.296 57.97c1.666-1.666 1.666-4.376 0-6.03a4.246 4.246 0 00-6.017.013l4.541-6.806 6.093 3.079 1.336 6.399-5.953 3.345z" fill="#E0E0E0"/><path d="M479.01 49.65l6.69-6.691 9.121 2.455 2.455 9.121-6.691 6.692-9.12-2.456-2.455-9.12zm12.147 5.47c1.667-1.666 1.667-4.376 0-6.03a4.245 4.245 0 00-6.016.013 4.23 4.23 0 000 6.005 4.268 4.268 0 006.016.012z" fill="#F0F0F0"/><path d="M114.759 307.545l4.897-1.323 1.31-4.898-1.908-1.908-2.022 4.185-4.198 2.023 1.921 1.921z" fill="#E0E0E0"/><path d="M114.453 304.262a2.304 2.304 0 010-3.244 2.277 2.277 0 013.231.013l-2.429-3.651-3.269 1.654-.713 3.434 3.18 1.794z" fill="#E0E0E0"/><path d="M119.439 299.797l-3.587-3.587-4.897 1.31-1.31 4.898 3.587 3.587 4.897-1.31 1.31-4.898zm-6.513 2.939a2.304 2.304 0 010-3.244 2.277 2.277 0 013.231.013c.891.89.891 2.328 0 3.231-.89.878-2.34.89-3.231 0zM97.13 39.066l4.058 4.058c1.056 1.056 2.785 1.056 3.854 0a2.725 2.725 0 000-3.842l-4.058-4.057a2.725 2.725 0 00-3.841 0 2.714 2.714 0 00-.013 3.841z" fill="#F0F0F0"/><path d="M94.267 28.94c3.13-1.119 6.526.344 7.581 3.283 1.056 2.938-.623 6.233-3.752 7.365-3.13 1.12-6.525-.343-7.581-3.282-1.056-2.938.623-6.233 3.752-7.365z" fill="#E0E0E0"/><path d="M89.849 35.62l.588 1.64 12.091-4.342-.589-1.64-12.09 4.343z" fill="#F0F0F0"/><path d="M317.999 474c136.209 0 246.628-6.447 246.628-14.401 0-7.953-110.419-14.4-246.628-14.4s-246.628 6.447-246.628 14.4C71.371 467.553 181.79 474 318 474z" fill="#F5F5F5"/><path d="M110.309 83.566c-1.272-5.598-.7-10.317 1.704-14.146 2.417-3.83 6.398-6.374 11.97-7.646 5.711-1.297 10.456-.763 14.246 1.603 3.791 2.366 6.309 6.31 7.569 11.83.915 4.008.979 7.455.216 10.33s-2.264 5.318-4.49 7.328c-2.226 2.01-5.241 3.447-9.057 4.312-3.867.878-7.212.992-10.023.33-2.811-.66-5.317-2.136-7.492-4.452-2.188-2.315-3.74-5.47-4.643-9.49zm10.608-2.354c.789 3.46 1.997 5.814 3.626 7.022 1.628 1.221 3.548 1.578 5.774 1.069 2.277-.522 3.867-1.654 4.783-3.422.916-1.769.929-4.567.064-8.409-.738-3.231-1.921-5.444-3.562-6.64-1.641-1.196-3.574-1.54-5.813-1.03-2.137.483-3.689 1.628-4.63 3.434-.954 1.82-1.043 4.478-.242 7.976zm29.931-1.845c-.865-3.791-.293-7.213 1.704-10.253 1.997-3.04 5.177-5.05 9.528-6.043 4.973-1.132 9.069-.547 12.262 1.768 2.569 1.858 4.248 4.49 5.024 7.9.865 3.83.318 7.251-1.666 10.266-1.985 3.015-5.216 5.038-9.693 6.055-3.994.903-7.454.636-10.379-.84-3.588-1.819-5.852-4.77-6.78-8.853zm9.552-2.188c.509 2.213 1.323 3.752 2.468 4.605 1.132.852 2.392 1.132 3.74.827 1.374-.318 2.378-1.094 3.027-2.341s.7-3.028.178-5.33c-.496-2.15-1.297-3.664-2.429-4.503-1.132-.853-2.353-1.133-3.664-.827-1.386.318-2.416 1.106-3.078 2.391-.661 1.26-.738 2.99-.242 5.178zm28.595 16.461l-7.798-34.322 8.917-2.022.84 3.676c.877-1.819 1.78-3.13 2.683-3.905 1.222-1.043 2.672-1.768 4.363-2.15 3.32-.75 6.182-.064 8.574 2.06 2.391 2.125 4.019 5.064 4.871 8.816.942 4.135.662 7.519-.814 10.14-1.488 2.632-3.739 4.286-6.767 4.973-1.462.33-2.862.382-4.185.165-1.322-.228-2.569-.725-3.752-1.488l2.697 11.869-9.629 2.188zm4.592-23.98c.445 1.972 1.195 3.334 2.238 4.097 1.043.763 2.201 1.005 3.46.712 1.107-.254 1.934-.916 2.481-1.997.546-1.081.559-2.722.063-4.898-.458-2.01-1.183-3.396-2.175-4.172-.992-.763-2.048-1.018-3.18-.763-1.221.28-2.124.98-2.722 2.124-.598 1.12-.649 2.76-.165 4.898zm21.929.752l9.248-3.04c.648 1.03 1.373 1.717 2.187 2.035.815.318 1.807.356 2.977.089 1.285-.293 2.213-.789 2.786-1.488.458-.535.61-1.094.47-1.705-.152-.687-.636-1.132-1.437-1.349-.572-.152-2.01-.165-4.325-.05-3.434.178-5.864.165-7.263-.038-1.399-.204-2.671-.79-3.816-1.756-1.145-.967-1.895-2.2-2.226-3.702-.369-1.64-.216-3.155.471-4.554.687-1.4 1.793-2.582 3.332-3.55 1.539-.966 3.715-1.767 6.513-2.404 2.964-.674 5.202-.94 6.716-.814 1.514.128 2.849.573 4.007 1.298 1.157.738 2.239 1.844 3.231 3.333l-8.828 2.938c-.42-.75-.941-1.233-1.564-1.488-.865-.33-1.819-.369-2.888-.127-1.081.242-1.819.61-2.226 1.107-.407.496-.547 1.017-.42 1.564.14.61.56.992 1.247 1.17.699.166 2.111.14 4.261-.088 3.244-.357 5.724-.395 7.403-.115 1.692.293 3.078.929 4.172 1.934 1.094 1.005 1.794 2.213 2.112 3.625.33 1.438.216 2.926-.344 4.478-.559 1.552-1.679 2.939-3.358 4.172-1.679 1.222-4.134 2.201-7.339 2.94-4.541 1.03-7.925 1.118-10.138.266-2.213-.865-3.867-2.417-4.961-4.681zm31.062-31.472l10.443-.064.051 8.014-1.921 16.118-6.461.038-2.061-16.092-.051-8.014zm.509 26.574l9.743-.051.051 8.612-9.743.051-.051-8.612zm-83.406 82.852a.71.71 0 01-.229-.038c-5.724-2.213-9.145-4.389-10.926-6.984-1.297.255-2.735.089-4.109-.56-1.335-.636-2.62-1.742-3.536-3.332-.865.661-1.92.839-3.091.483-1.297-.407-2.633-1.488-3.752-3.066a2.963 2.963 0 01-1.972.547c-3.778-.305-8.904-7.836-9.273-15.863a.632.632 0 01.611-.662.63.63 0 01.661.611c.344 7.62 5.228 14.413 8.103 14.642.471.051.852-.102 1.183-.356-1.73-3.028-2.62-7.353-1.297-11.971 1.093-3.816 2.06-5.317 3.218-5.037 2.188.547 1.908 8.866.737 14.362-.267 1.247-.648 2.137-1.081 2.773 1.005 1.488 2.188 2.481 3.231 2.811.929.293 1.616.051 2.124-.445-1.004-2.468-1.208-5.813.153-10.1 1.781-5.636 2.506-5.788 2.938-5.877a.827.827 0 01.814.279c1.171 1.323-.229 10.075-1.704 14.401a6.398 6.398 0 01-.712 1.475c.788 1.552 1.959 2.608 3.167 3.181.979.47 1.984.636 2.887.547a7.682 7.682 0 01-.305-.738c-1.005-2.735-.521-5.89 1.501-9.643 1.348-2.493 2.442-3.651 3.447-3.651.305 0 .852.115 1.259.84 1.107 2.048.306 8.803-1.882 12.148a5.057 5.057 0 01-2.061 1.781c1.705 2.239 4.936 4.211 10.113 6.221a.64.64 0 01.369.827.622.622 0 01-.586.394zm-7.186-20.951s-.725 0-2.328 2.989c-1.845 3.409-2.302 6.221-1.438 8.6.102.292.229.572.382.852a3.816 3.816 0 001.679-1.399c1.781-2.723 2.633-8.32 1.972-10.508-.127-.458-.267-.534-.267-.534zm-9.133-5.356c-.331.623-.878 1.883-1.705 4.491-1.094 3.447-1.094 6.207-.483 8.332.038-.102.076-.216.114-.318 1.501-4.389 2.226-10.406 2.074-12.505zm-8.37-4.007c-.216.203-.827 1.005-1.717 4.096-1.171 4.084-.446 7.811.928 10.495.267-.547.445-1.183.573-1.781 1.31-6.259.928-11.907.216-12.81zm73.051 96.985c-1.934 0-3.982-.445-5.801-1.513a.631.631 0 01-.229-.865.63.63 0 01.865-.229c4.541 2.658 10.405.801 11.614-1.133.14-.229.267-.521.191-.852-1.794.191-4.007-.28-6.526-1.87-3.231-2.023-3.485-2.62-3.472-3.104a.78.78 0 01.432-.661c1.272-.636 7.009 1.997 9.4 3.574.318.204.573.433.789.662 1.056-.255 1.882-.802 2.417-1.463a3.78 3.78 0 00.75-1.425c-.089.013-.165.026-.254.026-2.036.203-4.071-.675-6.246-2.672-1.488-1.374-2.073-2.328-1.882-3.091.063-.242.267-.674.915-.827 1.756-.433 6.106 1.412 7.874 3.358.394.433.674.954.814 1.501 1.654-.776 3.409-2.531 5.495-5.431a.646.646 0 01.891-.153.645.645 0 01.152.89c-2.404 3.359-4.401 5.267-6.423 6.043-.077.89-.446 1.806-1.107 2.595-.649.776-1.59 1.437-2.773 1.794.127.572.013 1.183-.356 1.768-1.069 1.73-4.147 3.078-7.53 3.078zm-1.132-8.815c.432.318 1.043.738 1.92 1.285 1.73 1.081 3.269 1.577 4.58 1.679-2.112-1.311-4.872-2.468-6.5-2.964zm4.439-5.407c.076.204.356.725 1.488 1.768 1.895 1.743 3.613 2.532 5.253 2.341.14-.013.268-.038.408-.063a2.484 2.484 0 00-.547-1.056c-1.794-1.947-5.737-3.193-6.602-2.99z" fill="#263238"/><path d="M228.884 213.294l-19.818 3.6-17.999-98.219-38.236 6.946-62.315 110.673 6.69 36.522 79.933-14.515 5.469 29.869 38.237-6.945-5.47-29.869 19.818-3.6-6.309-34.462zm-100.297 18.229l33.021-57.969 9.209 50.299-42.23 7.67zm259.92-119.526c-.738-6.781-2.099-12.81-4.07-18.09-1.972-5.266-4.936-10.444-8.891-15.507-3.956-5.063-9.35-9.464-16.155-13.191-6.818-3.728-15.811-6.323-26.992-7.773-23.265-3.028-41.403 1.094-54.416 12.39-13.012 11.297-21.573 32.922-25.694 64.891-1.679 13-2.086 25.022-1.247 36.051.84 11.042 2.875 19.909 6.08 26.625 4.389 9.439 10.596 16.97 18.635 22.606 8.026 5.635 19.029 9.362 33.009 11.181 24.931 3.244 43.4-1.539 55.421-14.362 12.02-12.822 19.995-34.486 23.926-65.004 1.743-13.586 1.87-26.867.394-39.817z" fill="#407BFF"/><path d="M320.252 218.141c-3.052-.101-6.309-.381-9.68-.814-11.638-1.514-20.657-4.465-26.775-8.765-6.042-4.236-10.621-9.82-13.979-17.059l-.064-.127c-2.442-5.114-4.045-12.403-4.745-21.664-.776-10.037-.381-21.206 1.171-33.202 4.541-35.263 13.915-49.98 20.988-56.112 8.242-7.15 19.359-10.38 34-9.885a97.1 97.1 0 019.438.802c9.4 1.221 16.829 3.307 22.095 6.182 5.101 2.786 9.082 5.992 11.842 9.528 3.053 3.918 5.343 7.875 6.806 11.793 1.551 4.16 2.658 9.108 3.269 14.705 1.361 11.844 1.221 24.107-.369 36.535-3.524 27.401-10.342 46.648-20.251 57.22-7.377 7.836-18.405 11.385-33.746 10.863z" fill="#263238"/><path d="M345.144 112.366l.165-4.821-2.964-.967a29.049 29.049 0 00-.788-4.834l2.506-1.845-1.705-4.528-3.104.254a27.894 27.894 0 00-2.582-4.16l1.603-2.684-3.307-3.524-2.773 1.425a31.57 31.57 0 00-3.969-2.875l.445-3.078-4.401-1.998-2.01 2.367a30.99 30.99 0 00-4.77-1.12l-.75-3.015-4.834-.165-.954 2.964c-1.653.14-3.269.394-4.833.789l-1.857-2.494-4.529 1.692.255 3.104a29.162 29.162 0 00-4.16 2.595l-2.671-1.603-3.536 3.295 1.425 2.786a29.32 29.32 0 00-2.862 3.969l-3.079-.458-2.009 4.401 2.378 2.01a28.623 28.623 0 00-1.119 4.771l-3.028.763-.165 4.821 2.977.967c.127 1.654.394 3.27.788 4.834l-2.506 1.845 1.705 4.528 3.104-.254a27.882 27.882 0 002.582 4.16l-1.603 2.684 3.307 3.524 2.773-1.425a30.606 30.606 0 003.969 2.875l-.458 3.078 4.401 1.998 2.022-2.366c1.54.496 3.13.865 4.77 1.119l.751 3.015 4.834.165.954-2.964a30.209 30.209 0 004.833-.788l1.845 2.493 4.528-1.692-.242-3.104a29.251 29.251 0 004.16-2.595l2.671 1.603 3.536-3.295-1.425-2.786a29.338 29.338 0 002.862-3.969l3.079.458 2.009-4.401-2.378-2.01c.496-1.54.877-3.13 1.119-4.771l3.015-.763zm-32.563 15.621c-10.558-.356-18.813-9.21-18.457-19.768.356-10.571 9.209-18.827 19.767-18.471 10.557.356 18.813 9.21 18.456 19.781-.368 10.546-9.209 18.815-19.766 18.458z" fill="#407BFF"/><path opacity=".3" d="M365.217 200.879l.344-3.244-1.946-.801a20.095 20.095 0 00-.293-3.295l1.781-1.132-.903-3.142-2.112.013a18.847 18.847 0 00-1.526-2.939l1.208-1.73-2.048-2.544-1.946.814a18.566 18.566 0 00-2.531-2.125l.47-2.073-2.862-1.577-1.5 1.513a20.35 20.35 0 00-3.155-1.005l-.356-2.086-3.244-.369-.801 1.947a20.127 20.127 0 00-3.295.305l-1.132-1.794-3.142.916.013 2.112a20.07 20.07 0 00-2.938 1.526l-1.73-1.221-2.544 2.048.814 1.947c-.75.776-1.488 1.615-2.124 2.531l-2.048-.458-1.577 2.862 1.501 1.476a21.714 21.714 0 00-1.005 3.167l-2.086.344-.344 3.244 1.946.814a17.735 17.735 0 00.293 3.282l-1.794 1.132.916 3.142h2.112a19.262 19.262 0 001.526 2.926l-1.221 1.73 2.035 2.557 1.959-.827a18.554 18.554 0 002.531 2.125l-.47 2.073 2.862 1.578 1.501-1.501c1.03.419 2.086.737 3.154.992l.356 2.086 3.244.369.801-1.959a20.465 20.465 0 003.295-.305l1.132 1.793 3.129-.916v-2.111a20.123 20.123 0 002.938-1.527l1.718 1.221 2.556-2.035-.827-1.946a19.487 19.487 0 002.137-2.532l2.048.458 1.578-2.862-1.501-1.476c.419-1.043.737-2.086.992-3.155l2.111-.356zm-16.37-1.259c-1.514 2.748-4.961 3.765-7.709 2.251-2.747-1.513-3.739-4.961-2.238-7.708a5.674 5.674 0 019.947 5.457z" fill="#407BFF"/><path d="M383.242 145.911l-3.791-2.621v-.012a19.958 19.958 0 00-1.526-3.944l.966-3.816-5.495-5.89-3.866.712a21.062 21.062 0 00-3.829-1.793h-.013l-2.353-3.969-8.052-.28-2.62 3.791h-.013a20.24 20.24 0 00-3.943 1.526l-3.816-.967-5.889 5.496.712 3.867a21.165 21.165 0 00-1.794 3.842l-3.968 2.353-.28 8.053 3.79 2.62c.369 1.387.878 2.71 1.527 3.969l-.967 3.804 5.495 5.89 3.842-.7a21.446 21.446 0 003.866 1.794l2.354 3.956 8.051.28 2.621-3.791a20.549 20.549 0 003.981-1.527l3.791.967 5.889-5.495-.712-3.867a20.813 20.813 0 001.793-3.855l3.969-2.353.28-8.04zm-25.097 12.238c-5.012-.166-8.917-4.376-8.751-9.363.165-5.012 4.363-8.918 9.362-8.752 5.011.165 8.916 4.363 8.751 9.363-.165 4.999-4.363 8.93-9.362 8.752z" fill="#fff"/><path d="M410.907 81.632l.661-1.603a8.555 8.555 0 001.336-.865l1.476.05 1.73-2.48-.56-1.361a7.921 7.921 0 00.356-1.552l1.272-1.17-.534-2.977-1.603-.662a7.64 7.64 0 00-.865-1.323l.051-1.475-2.48-1.73-1.361.56a7.24 7.24 0 00-1.552-.357l-1.171-1.272-2.976.534-.661 1.603a7.266 7.266 0 00-1.336.865l-1.476-.05-1.73 2.48.56 1.361a8.045 8.045 0 00-.356 1.565l-1.272 1.17.534 2.977 1.603.661c.242.484.547.929.878 1.336l-.051 1.463 2.48 1.73 1.361-.56a7.234 7.234 0 001.552.356l1.17 1.273 2.964-.547zm-6.474-8.256a3.396 3.396 0 012.747-3.944 3.395 3.395 0 013.943 2.748 3.396 3.396 0 01-2.747 3.943c-1.832.344-3.613-.89-3.943-2.747zm-28.417-.179l-.967-.814c1.692-1.997 4.083-4.529 7.645-6.399l.585 1.133c-3.804 1.971-6.233 4.846-7.263 6.08zm10.15-7.237l-.496-1.171c4.808-2.061 9.832-2.862 14.933-2.392l-.114 1.272c-4.898-.47-9.706.306-14.323 2.29zm-2.403 8.802l-1.056-.712c2.608-3.842 7.772-7.175 12.555-8.13l.241 1.248c-4.464.89-9.298 4.007-11.74 7.594z" fill="#407BFF"/><path d="M299.353 197.177a.647.647 0 01-.458-.191l-2.671-2.748a22.45 22.45 0 01-4.007-.75l-4.159 1.832a.651.651 0 01-.611-.051l-6.97-4.618a.6.6 0 01-.28-.534l.063-4.529a22.02 22.02 0 01-2.251-3.409l-3.574-1.387a.621.621 0 01-.395-.47l-1.666-8.193a.66.66 0 01.178-.585l2.748-2.671c.127-1.349.381-2.697.737-4.008l-1.831-4.147a.647.647 0 01.051-.61l4.617-6.971a.573.573 0 01.534-.28l4.529.063a22.155 22.155 0 013.409-2.239l1.386-3.574a.621.621 0 01.471-.395l8.191-1.666a.656.656 0 01.585.178l2.659 2.748c1.348.127 2.697.381 4.007.738l4.146-1.832a.648.648 0 01.611.051l6.971 4.617a.601.601 0 01.279.535l-.063 4.541a21.484 21.484 0 012.239 3.397l3.574 1.386a.623.623 0 01.394.471l1.667 8.192a.656.656 0 01-.179.585l-2.747 2.672a22.735 22.735 0 01-.751 3.994l1.832 4.16a.648.648 0 01-.051.611l-4.617 6.958c-.115.178-.305.267-.534.28l-4.529-.064c-1.055.84-2.2 1.591-3.409 2.239l-1.386 3.575a.62.62 0 01-.471.394l-8.191 1.667c.012.038-.026.038-.077.038zm-7.161-4.999c.063 0 .114.012.178.025 1.361.394 2.773.662 4.21.789a.634.634 0 01.407.191l2.595 2.671 7.505-1.527 1.348-3.472a.598.598 0 01.306-.331 21.007 21.007 0 003.587-2.354.57.57 0 01.407-.14l4.414.064 4.235-6.386-1.781-4.045a.64.64 0 01-.025-.433c.407-1.386.661-2.811.789-4.21a.638.638 0 01.19-.407l2.672-2.596-1.527-7.505-3.472-1.348a.626.626 0 01-.344-.306 20.857 20.857 0 00-2.353-3.574.562.562 0 01-.14-.42l.064-4.414-6.386-4.236-4.045 1.78a.632.632 0 01-.432.026 21.684 21.684 0 00-4.223-.789.639.639 0 01-.407-.191l-2.582-2.671-7.505 1.527-1.349 3.472a.596.596 0 01-.305.331 21.586 21.586 0 00-3.587 2.353c-.114.09-.267.166-.42.14l-4.413-.063-4.236 6.386 1.781 4.045a.636.636 0 01-.013.547 22.026 22.026 0 00-.738 4.109.639.639 0 01-.191.407l-2.671 2.595 1.527 7.506 3.472 1.348c.153.064.28.178.344.331a21.413 21.413 0 002.34 3.549.63.63 0 01.153.42l-.064 4.414 6.385 4.236 4.045-1.781a.586.586 0 01.255-.063zm6.245-4.109c-3.218 0-6.461-.916-9.336-2.812a16.853 16.853 0 01-7.251-10.762 16.808 16.808 0 012.481-12.734c5.177-7.785 15.709-9.935 23.494-4.77 7.784 5.165 9.921 15.711 4.757 23.496-3.244 4.923-8.637 7.582-14.145 7.582zm-13.038-25.608a15.53 15.53 0 00-2.289 11.78 15.606 15.606 0 006.703 9.948c7.212 4.77 16.956 2.798 21.726-4.402s2.798-16.957-4.401-21.74c-7.212-4.77-16.956-2.786-21.739 4.414z" fill="#fff"/><path d="M541.656 224.782l-19.958-2.697 13.203-98.983-38.516-5.203-93.428 86.033-4.91 36.802 80.505 10.864-4.02 30.098 38.516 5.203 4.02-30.098 19.958 2.697 4.63-34.716zm-101.023-13.637l49.303-44.944-6.767 50.681-42.536-5.737z" fill="#407BFF"/><path d="M501.333 285.958c-.038 0-.076 0-.114-.013a.634.634 0 01-.509-.738l29.676-162.741a.643.643 0 01.737-.508.633.633 0 01.509.737l-29.676 162.741a.63.63 0 01-.623.522zm26.33-160.757a1.04 1.04 0 01-1.081 1.005 1.032 1.032 0 01-1.005-1.081 1.033 1.033 0 011.081-1.005 1.04 1.04 0 011.005 1.081zm-4.236 22.008a1.04 1.04 0 01-1.081 1.005 1.04 1.04 0 01-1.005-1.081 1.04 1.04 0 011.081-1.005 1.057 1.057 0 011.005 1.081zm-4.235 22.007a1.04 1.04 0 01-1.081 1.005 1.04 1.04 0 01-1.005-1.081 1.04 1.04 0 011.082-1.005 1.056 1.056 0 011.004 1.081zm-8.345 22.911a1.04 1.04 0 01-1.081 1.005 1.032 1.032 0 01-1.005-1.081 1.04 1.04 0 011.081-1.005 1.04 1.04 0 011.005 1.081zm-.139 21.105a1.04 1.04 0 01-1.081 1.005 1.033 1.033 0 01-1.005-1.082 1.033 1.033 0 011.081-1.005 1.04 1.04 0 011.005 1.082zm-4.236 22.007a1.041 1.041 0 01-1.081 1.005 1.033 1.033 0 01-1.005-1.082 1.04 1.04 0 011.081-1.005 1.049 1.049 0 011.005 1.082zm-4.236 22.007a1.04 1.04 0 01-1.082 1.005 1.04 1.04 0 01-1.005-1.081 1.042 1.042 0 011.082-1.005 1.058 1.058 0 011.005 1.081zm-4.248 22.008a1.04 1.04 0 01-1.082 1.005 1.04 1.04 0 01-1.005-1.081 1.032 1.032 0 011.082-1.005 1.04 1.04 0 011.005 1.081z" fill="#263238"/><path d="M509.805 192.725a.639.639 0 01-.624-.509.622.622 0 01.484-.751l3.154-.674c.344-.064.687.14.751.483a.622.622 0 01-.484.751l-3.154.674c-.038.025-.076.026-.127.026zm10.545-11.716s-2.849 7.416-3.803 11.907c-.954 4.49-1.018 14.527-1.018 14.527" fill="#263238"/><path d="M515.529 208.079a.637.637 0 01-.636-.636c0-.407.063-10.151 1.03-14.667.954-4.491 3.714-11.704 3.829-12.009a.65.65 0 01.826-.369.64.64 0 01.369.827c-.025.076-2.836 7.416-3.778 11.818-.928 4.376-1.004 14.311-1.004 14.4a.63.63 0 01-.636.636zM282.957 317.887c1.768-28.495-1.488-80.308 52.076-73.451 57.418 7.353 40.984 74.494 40.984 74.494l-93.06-1.043z" fill="#263238"/><path d="M319.922 300.765c12.912 0 23.38-10.469 23.38-23.382 0-12.913-10.468-23.381-23.38-23.381-12.912 0-23.379 10.468-23.379 23.381s10.467 23.382 23.379 23.382z" fill="#fff"/><path d="M323.001 254.039c-11.067-1.895-22.909 6.272-24.079 14.541l43.897 4.032c-1.552-9.426-11.041-17.071-19.818-18.573z" fill="#263238"/><path d="M337.821 276.798c-.318 6.106-3.638 10.902-7.442 10.711-3.79-.191-6.614-5.304-6.296-11.423.318-6.106 3.638-10.902 7.441-10.711 3.778.203 6.602 5.317 6.297 11.423z" fill="#263238"/><path d="M319.923 302.024c-13.585 0-24.652-11.055-24.652-24.654 0-13.586 11.054-24.653 24.652-24.653 13.585 0 24.651 11.054 24.651 24.653 0 13.599-11.053 24.654-24.651 24.654zm0-46.75c-12.186 0-22.108 9.909-22.108 22.109 0 12.199 9.909 22.109 22.108 22.109 12.186 0 22.107-9.91 22.107-22.109 0-12.2-9.921-22.109-22.107-22.109z" fill="#407BFF"/><path opacity=".3" d="M369.504 317.162c-.051 0-.102 0-.153-.013a.631.631 0 01-.47-.763c.038-.165 4.096-17.415-.115-34.856a.622.622 0 01.471-.763.638.638 0 01.763.471c4.287 17.746.153 35.275.114 35.453a.625.625 0 01-.61.471zm-3.549-45.172a.66.66 0 01-.585-.369c-1.641-3.575-3.663-6.844-6.029-9.745a.64.64 0 01.089-.89.628.628 0 01.89.089 46.427 46.427 0 016.208 10.012.628.628 0 01-.318.839.583.583 0 01-.255.064z" fill="#fff"/><path d="M163.745 451.561h-.471c-3.51-.102-6.283-3.028-6.181-6.539.101-3.511 2.989-6.221 6.538-6.182h.127c3.676 0 12.516-4.466 31.011-33.622a6.363 6.363 0 014.452-2.888 6.33 6.33 0 015.088 1.501c22.82 19.896 47.001 32.286 47.242 32.413a6.36 6.36 0 012.786 8.549c-1.59 3.129-5.419 4.389-8.548 2.799-.967-.484-22.095-11.297-44.265-29.45-15.493 23.293-26.992 33.419-37.779 33.419z" fill="#263238"/><path d="M203.101 402.686a3.818 3.818 0 01-3.791-4.351c.903-6.335-.216-30.06-8.23-48.505a3.836 3.836 0 011.349-4.682c17.426-11.868 54.543-13.293 56.108-13.344 2.098-.051 3.866 1.577 3.943 3.676a3.81 3.81 0 01-3.676 3.944c-.344.013-32.792 1.259-49.468 10.431 7.097 18.369 8.713 41.267 7.53 49.549a3.805 3.805 0 01-3.765 3.282z" fill="#263238"/><path d="M209.512 397.737c-2.544-5.991-13.98-5.305-20.696-.178-3.587 2.748-8.446 10.991-8.955 13.981-.508 2.989 1.565 5.699 5.114 5.393 4.388-.381 10.405-6.755 10.405-6.755-4.007 3.931 1.157 6.704 8.878 1.018 4.274-3.142 8.09-6.755 5.254-13.459z" fill="#407BFF"/><path d="M428.296 319.566c-.064 0-.114-.013-.178-.025a.627.627 0 01-.432-.789c1.691-5.903 3.548-9.503 5.978-11.513-.369-1.272-.331-2.722.191-4.147.509-1.386 1.501-2.76 3.002-3.816-.738-.801-1.005-1.844-.751-3.028.293-1.323 1.247-2.76 2.722-4.019a2.994 2.994 0 01-.725-1.921c-.038-3.791 7.009-9.579 14.959-10.661a.616.616 0 01.712.547.624.624 0 01-.547.713c-7.555 1.03-13.89 6.5-13.865 9.388 0 .471.179.84.458 1.145 2.862-1.997 7.085-3.282 11.805-2.366 3.905.75 5.495 1.577 5.304 2.76-.344 2.226-8.663 2.697-14.234 2.023-1.259-.153-2.188-.445-2.862-.827-1.386 1.132-2.277 2.404-2.506 3.473-.203.954.102 1.615.636 2.086 2.366-1.221 5.686-1.73 10.075-.75 5.774 1.272 5.991 1.971 6.118 2.391a.85.85 0 01-.204.84c-1.221 1.285-10.061.674-14.5-.407a6.144 6.144 0 01-1.527-.573c-1.475.929-2.417 2.176-2.887 3.448-.369 1.017-.458 2.022-.293 2.926.229-.14.458-.268.7-.369 2.633-1.247 5.813-1.044 9.731.636 2.594 1.119 3.854 2.099 3.943 3.104.025.292-.026.865-.725 1.323-1.934 1.284-8.739 1.094-12.275-.789-.84-.445-1.488-1.107-1.959-1.896-2.073 1.896-3.752 5.305-5.292 10.635a.572.572 0 01-.572.458zm6.894-11.869a3.87 3.87 0 001.552 1.552c2.875 1.527 8.523 1.883 10.634 1.018.433-.178.496-.318.496-.318s-.063-.712-3.18-2.048c-3.561-1.527-6.411-1.743-8.688-.662-.279.128-.547.28-.814.458zm4.249-8.357c.114.038.216.063.331.089 4.49 1.094 10.557 1.285 12.63.941-.648-.267-1.958-.712-4.63-1.297-3.523-.776-6.283-.535-8.331.267zm1.603-7.15c.572.217 1.221.344 1.831.408 6.335.75 11.932-.14 12.771-.929-.216-.191-1.068-.738-4.236-1.349-4.185-.788-7.835.255-10.366 1.87zM262.708 449.436c.839-.267.56-1.081-.382-1.081h-17.223c-32.792-3.473-55.701 1.183-41.263 2.277 14.437 1.094-1.018.865-11.563 4.859-10.545 3.995 78.419 5 86.522 0 7.454-4.605-27.717-2.34-16.091-6.055z" fill="#263238"/><path d="M386.015 454.511l-149.842-4.974-6.22-145.3 176.948 3.957-20.886 146.317z" fill="#407BFF"/><path d="M282.958 451.726a.637.637 0 01-.636-.585l-12.008-145.937a.633.633 0 01.585-.687.632.632 0 01.687.586l12.008 145.936a.633.633 0 01-.585.687h-.051z" fill="#263238"/><path d="M386.016 454.512l40.271-6.131 12.682-135.111-32.067-5.076-20.886 146.318z" fill="#407BFF"/><path opacity=".2" d="M386.016 454.512l40.271-6.131 12.682-135.111-32.067-5.076-20.886 146.318z" fill="#000"/><path d="M248.969 421.526l-3.689-86.325c-.382-9.006 6.92-16.474 15.938-16.27l112.012 2.506c9.35.203 16.422 8.548 15.099 17.809l-12.415 87c-1.119 7.887-8.001 13.662-15.963 13.395l-95.896-3.18c-8.167-.267-14.73-6.781-15.086-14.935z" fill="#263238"/><path d="M261.079 345.429l17.325.547-.14 4.465-10.85-.344-.102 3.321 10.062.318-.14 4.274-10.062-.318-.127 4.121 11.168.357-.152 4.745-17.643-.56.661-20.926zm20.544 21.6l.661-20.926 10.774.343c1.997.064 3.524.28 4.567.661a4.924 4.924 0 012.493 1.985c.623.954.903 2.086.865 3.422-.038 1.158-.318 2.15-.84 2.977a5.756 5.756 0 01-2.111 1.984c-.56.318-1.323.573-2.302.751.763.28 1.31.559 1.653.827.229.178.56.559 1.005 1.132.432.572.725 1.017.865 1.323l2.938 6.169-7.301-.228-3.256-6.501c-.407-.84-.789-1.387-1.12-1.654a2.643 2.643 0 00-1.564-.534l-.573-.013-.267 8.498-6.487-.216zm6.894-12.238l2.722.089c.293.013.865-.064 1.718-.229.432-.076.788-.28 1.068-.623a1.92 1.92 0 00.445-1.196c.026-.674-.178-1.196-.598-1.577-.419-.382-1.221-.586-2.391-.624l-2.837-.089-.127 4.249zm15.848 12.963l.662-20.926 10.774.344c1.997.063 3.523.279 4.566.661a4.915 4.915 0 012.493 1.985c.623.954.903 2.086.865 3.422-.038 1.157-.318 2.149-.839 2.976a5.77 5.77 0 01-2.112 1.985c-.56.318-1.323.572-2.302.75.763.28 1.31.56 1.653.827.229.178.56.56 1.005 1.132.433.573.725 1.018.865 1.323l2.938 6.17-7.301-.229-3.256-6.5c-.407-.84-.789-1.387-1.119-1.654a2.632 2.632 0 00-1.565-.534l-.572-.013-.268 8.498-6.487-.217zm6.882-12.25l2.722.089c.292.013.865-.064 1.717-.229.433-.076.789-.28 1.069-.623.279-.344.432-.738.445-1.196.025-.674-.178-1.196-.598-1.578-.42-.381-1.221-.585-2.391-.623l-2.837-.089-.127 4.249zm14.794 2.48c.114-3.422 1.145-6.042 3.104-7.887 1.959-1.844 4.642-2.709 8.039-2.608 3.485.115 6.131 1.133 7.962 3.066 1.819 1.934 2.684 4.58 2.583 7.951-.077 2.442-.56 4.44-1.425 5.979a8.757 8.757 0 01-3.689 3.536c-1.59.827-3.536 1.196-5.864 1.12-2.366-.077-4.299-.509-5.826-1.311-1.526-.801-2.734-2.035-3.65-3.689-.903-1.666-1.323-3.714-1.234-6.157zm6.462.229c-.064 2.112.28 3.639 1.03 4.593.751.954 1.806 1.437 3.155 1.488 1.386.038 2.48-.369 3.269-1.259.788-.878 1.221-2.494 1.297-4.834.064-1.972-.292-3.422-1.056-4.351-.763-.929-1.831-1.425-3.192-1.463-1.311-.038-2.366.382-3.18 1.285-.814.89-1.26 2.404-1.323 4.541zm18.456 11.017l.661-20.926 10.774.343c1.997.064 3.524.28 4.567.662a4.917 4.917 0 012.493 1.984c.623.954.903 2.086.865 3.422-.038 1.158-.318 2.15-.84 2.977a5.756 5.756 0 01-2.111 1.984c-.56.318-1.323.573-2.303.751.764.28 1.311.56 1.654.827.229.178.56.56 1.005 1.132.432.572.725 1.018.865 1.323l2.938 6.17-7.301-.229-3.256-6.501c-.407-.839-.789-1.386-1.12-1.653a2.637 2.637 0 00-1.564-.535l-.573-.013-.267 8.498-6.487-.216zm6.882-12.238l2.722.089c.292.013.865-.063 1.717-.229.432-.076.788-.28 1.068-.623a1.92 1.92 0 00.445-1.196c.026-.674-.178-1.196-.597-1.577-.42-.382-1.222-.585-2.392-.624l-2.836-.089-.127 4.249zm3.407 47.806c-.458 0-.903-.178-1.234-.547l-10.888-11.92-11.753 10.737a1.668 1.668 0 01-2.354-.102l-10.888-11.919-11.753 10.736a1.666 1.666 0 01-2.353-.102l-10.889-11.919-11.753 10.736a1.624 1.624 0 01-1.196.433 1.664 1.664 0 01-1.157-.547l-10.889-11.92-11.753 10.737a1.667 1.667 0 01-2.353-.102 1.667 1.667 0 01.102-2.353l12.987-11.869a1.666 1.666 0 012.353.102l10.888 11.919 11.754-10.736c.33-.306.763-.458 1.195-.433.446.026.865.216 1.158.547l10.888 11.92 11.753-10.737a1.669 1.669 0 012.354.102l10.888 11.92 11.753-10.737a1.668 1.668 0 012.353.102l12.021 13.153a1.668 1.668 0 01-.102 2.354 1.727 1.727 0 01-1.132.445z" fill="#fff"/><path d="M159.955 457.59l-7.963-3.791-7.097-34.563 3.854-4.236 11.206 42.59z" fill="#407BFF"/><path d="M159.954 457.59l10.558-6.17-9.044-28.469-12.72-7.951 11.206 42.59z" fill="#407BFF"/><path opacity=".2" d="M159.954 457.59l10.558-6.17-9.044-28.469-12.72-7.951 11.206 42.59z" fill="#000"/><path d="M333.201 463.875c-.305 0-.598 0-.878-.013-3.51-.102-6.283-3.027-6.182-6.539a6.357 6.357 0 016.538-6.182c9.795.318 30.541-5.699 42.383-17.199a6.376 6.376 0 012.608-1.526c20.085-6.03 27.552 6.144 27.87 6.665l-10.952 6.475s.038.09.152.229c-.127-.165-2.963-3.867-12.02-1.577-14.895 13.586-37.715 19.667-49.519 19.667z" fill="#263238"/><path d="M332.49 472.334l-23.163-1.463-1.819-42.705 31.126 1.158-6.144 43.01z" fill="#407BFF"/><path d="M332.49 472.333l5.419-5.394 3.358-26.625-2.633-10.991-6.144 43.01z" fill="#407BFF"/><path opacity=".2" d="M332.49 472.333l5.419-5.394 3.358-26.625-2.633-10.991-6.144 43.01z" fill="#000"/><path d="M466.71 456.153a3.807 3.807 0 01-2.302-.776c-13.217-10.05-31.101-27.897-37.957-45.109a3.332 3.332 0 01-.216-.776c-3.346-19.883-6.538-61.748-6.678-63.516-.166-2.099 1.412-3.931 3.511-4.097a3.825 3.825 0 014.095 3.511c.039.433 3.257 42.705 6.526 62.423 6.843 16.741 25.389 33.927 35.336 41.483a3.8 3.8 0 01.725 5.343 3.76 3.76 0 01-3.04 1.514zm17.642 1.933c-2.951 0-6.296-1.335-9.934-3.969a3.822 3.822 0 01-.852-5.33 3.82 3.82 0 015.329-.852c3.155 2.277 4.872 2.531 5.47 2.531a3.811 3.811 0 013.816 3.817 3.835 3.835 0 01-3.829 3.803z" fill="#263238"/><path d="M475.476 454.003c4.083-12.136 20.822-9.732 26.584-7.938 5.763 1.806 10.952 4.07 14.081 6.106 3.117 2.035 3.168 5.457-.992 7.403-5.139 2.405-18.011.268-18.011.268 6.665 2.913-.013 7.594-11.715 3.002-3.791-1.489-11.385-4.402-9.947-8.841z" fill="#407BFF"/><path d="M434.846 351.204c-1.513 10.304-10.049 17.911-16.994 16.881-6.945-1.018-7.225-10.228-5.711-20.532 1.514-10.304 4.261-17.809 11.206-16.792 6.933 1.031 13.013 10.139 11.499 20.443zm-167.877-41.14a1.043 1.043 0 100-2.086 1.043 1.043 0 000 2.086zm10.596 6.475c0 .573-.471 1.043-1.043 1.043-.573 0-1.043-.47-1.043-1.043 0-.572.47-1.043 1.043-1.043a1.04 1.04 0 011.043 1.043zm1.156 123.267c0 .572-.471 1.043-1.043 1.043a1.048 1.048 0 01-1.043-1.043c0-.573.47-1.043 1.043-1.043.585 0 1.043.47 1.043 1.043zm9.566 7.506c0 .572-.47 1.043-1.043 1.043a1.048 1.048 0 01-1.043-1.043c0-.573.471-1.043 1.043-1.043.573 0 1.043.47 1.043 1.043zm-183.335 12.517c-3.028 0-7.123-1.832-9.324-5.025a.636.636 0 01.165-.89.637.637 0 01.89.165c2.38 3.422 7.607 5.254 9.935 4.173.242-.115.445-.255.598-.433-2.073-.954-3.969-2.837-4.49-5.699-.293-1.616-.522-3.791.814-4.096 1.819-.407 4.21 4.007 5.126 7.353.165.623.229 1.195.165 1.704.802.217 1.59.28 2.277.178.547-.076 1.336-.305 1.743-.954-1.539-1.043-2.582-2.887-2.926-5.33-.496-3.473-.127-4.083.267-4.376a.87.87 0 01.878-.102c1.361.585 3.015 5.509 3.32 8.307.038.305.038.598 0 .878a4.986 4.986 0 001.717.331c1.107.063 2.188-.293 3.066-.802a3.709 3.709 0 01-.509-.381c-1.323-1.133-1.857-2.926-1.628-5.509.178-1.997.623-3.078 1.424-3.422.28-.127.853-.241 1.539.306 1.374 1.094 2.659 4.579 2.201 7.073a3.842 3.842 0 01-.636 1.463c2.328.407 5.622-.255 8.446-.954a.64.64 0 11.305 1.246c-3.447.852-7.161 1.539-9.781.789-1.171.929-2.811 1.488-4.452 1.476a6.14 6.14 0 01-2.086-.395c-.496.852-1.438 1.425-2.697 1.616-.84.127-1.844.051-2.849-.242a2.884 2.884 0 01-1.285 1.132c-.636.28-1.386.42-2.213.42zm-1.094-10.533c-.077.191-.204.84.102 2.595.419 2.341 1.933 3.893 3.612 4.72a4.346 4.346 0 00-.153-.904c-.992-3.638-2.9-6.144-3.561-6.411zm7.085-1.107c-.013.484.038 1.285.229 2.621.254 1.819.928 3.205 1.933 4.096-.305-2.557-1.437-5.508-2.162-6.717zm8.001-1.106s-.484.241-.662 2.366c-.191 2.137.204 3.587 1.183 4.427.229.19.484.356.763.483.357-.394.611-.84.687-1.31.344-1.845-.534-4.542-1.526-5.636-.242-.28-.407-.33-.445-.33zm172.178 22.363l3.448-5.979-3.448-5.979h-3.688l2.086 5.979-2.086 5.979h3.688z" fill="#263238"/><path d="M287.676 466.584a3.121 3.121 0 01-3.117-3.116 3.11 3.11 0 013.117-3.104l-5.864-1.171-1.552 4.733 2.62 3.994 4.796-1.336z" fill="#263238"/><path d="M288.184 457.488h-6.907l-3.447 5.979 3.447 5.979h6.907l3.447-5.979-3.447-5.979zm-3.447 9.096a3.121 3.121 0 01-3.116-3.117 3.11 3.11 0 013.116-3.104 3.1 3.1 0 013.104 3.104 3.111 3.111 0 01-3.104 3.117zm246.818-9.503l-2.557-4.439 2.557-4.44h2.735l-1.54 4.44 1.54 4.439h-2.735z" fill="#407BFF"/><path d="M534.111 454.957a2.323 2.323 0 002.315-2.315 2.312 2.312 0 00-2.315-2.302l4.351-.865 1.157 3.511-1.946 2.964-3.562-.993z" fill="#407BFF"/><path d="M533.742 448.202h5.126l2.557 4.44-2.557 4.439h-5.126l-2.556-4.439 2.556-4.44zm2.557 6.755a2.323 2.323 0 002.315-2.315 2.313 2.313 0 00-2.315-2.303 2.302 2.302 0 00-2.302 2.303 2.312 2.312 0 002.302 2.315zm-100.067 8.027h5.749a2.726 2.726 0 002.722-2.723 2.725 2.725 0 00-2.722-2.722h-5.749a2.725 2.725 0 00-2.722 2.722 2.734 2.734 0 002.722 2.723z" fill="#263238"/><path d="M427.048 457.845c1.425-3.015 4.859-4.376 7.683-3.041 2.824 1.336 3.969 4.847 2.544 7.862-1.424 3.015-4.859 4.376-7.683 3.04-2.823-1.335-3.968-4.846-2.544-7.861z" fill="#407BFF"/><path d="M428.66 465.674l1.576.743 5.48-11.621-1.577-.744-5.479 11.622z" fill="#263238"/></svg>