<svg width="636" height="474" viewBox="0 0 636 474" fill="none" xmlns="http://www.w3.org/2000/svg">
<path d="M636 416.552H0V416.87H636V416.552Z" fill="#EBEBEB"/>
<path d="M572.272 437.02H544.695V437.338H572.272V437.02Z" fill="#EBEBEB"/>
<path d="M438.421 430.418H395.033V430.736H438.421V430.418Z" fill="#EBEBEB"/>
<path d="M561.105 425.215H504.463V425.533H561.105V425.215Z" fill="#EBEBEB"/>
<path d="M220.082 431.626H205.912V431.944H220.082V431.626Z" fill="#EBEBEB"/>
<path d="M194.578 431.626H145.746V431.944H194.578V431.626Z" fill="#EBEBEB"/>
<path d="M119.58 426.258H84.3457V426.576H119.58V426.258Z" fill="#EBEBEB"/>
<path d="M274.84 185.639L275.412 168.923L265.147 165.565C264.728 159.853 263.774 154.218 262.413 148.773L271.113 142.362L265.198 126.664L254.437 127.529C251.868 122.453 248.853 117.619 245.482 113.09L251.054 103.791L239.593 91.5663L229.977 96.4894C225.639 92.813 221.073 89.4673 216.188 86.5288L217.74 75.8558L202.476 68.9228L195.48 77.1152C190.15 75.3851 184.63 74.0876 178.919 73.2353L176.324 62.7658L159.559 62.1934L156.251 72.4593C150.489 72.9299 144.905 73.8331 139.461 75.1943L132.999 66.544L117.303 72.4084L118.168 83.1704C113.093 85.7782 108.259 88.7931 103.731 92.1642L94.4704 86.5924L82.1957 98.0032L87.1183 107.671C83.4422 111.958 80.0968 116.576 77.1967 121.461L66.5246 119.858L59.554 135.123L67.7966 142.12C66.0667 147.45 64.7311 153.009 63.917 158.683L53.4103 161.329L52.8379 178.044L63.1411 181.403C63.5608 187.152 64.5149 192.75 65.8759 198.182L57.1754 204.593L63.0902 220.291L73.8513 219.426C76.4208 224.502 79.4354 229.336 82.8062 233.864L77.2349 243.163L88.6956 255.388L98.3119 250.465C102.599 254.142 107.216 257.487 112.1 260.439L110.498 271.112L125.762 278.045L132.796 269.852C138.125 271.582 143.646 272.88 149.357 273.732L151.952 284.202L168.717 284.774L172.024 274.508C177.774 274.037 183.371 273.134 188.802 271.773L195.213 280.423L210.909 274.559L210.083 263.797C215.158 261.189 219.941 258.174 224.52 254.79L233.78 260.362L246.055 248.951L241.132 239.283C244.808 234.996 248.153 230.379 251.054 225.494L261.726 227.097L268.696 211.831L260.454 204.835C262.184 199.505 263.519 193.984 264.333 188.272L274.84 185.639ZM161.899 239.792C125.291 238.533 96.6328 207.837 97.8794 171.226C99.1387 134.576 129.832 105.903 166.44 107.162C203.048 108.422 231.707 139.118 230.46 175.767C229.201 212.378 198.495 241.039 161.899 239.792Z" fill="#EBEBEB"/>
<path d="M560.9 130.353L565.111 126.422L563.432 123.102C564.716 121.601 565.861 119.998 566.853 118.344L570.542 118.904L572.933 113.638L570.097 111.221C570.707 109.363 571.153 107.443 571.432 105.522L575.058 104.618L575.248 98.8431L571.7 97.6982C571.547 95.7391 571.242 93.8182 570.771 91.9101L573.76 89.6839L571.725 84.2774L568.024 84.57C567.146 82.8527 566.116 81.1862 564.933 79.5834L566.853 76.4031L562.91 72.1797L559.603 73.8716C558.089 72.5868 556.499 71.4419 554.846 70.4496L555.38 66.7605L550.126 64.3562L547.71 67.193C545.84 66.5951 543.919 66.1499 541.998 65.87L541.095 62.2572L535.32 62.0537L534.163 65.6156C532.217 65.7683 530.283 66.0736 528.375 66.557L526.162 63.5675L520.743 65.5902L521.049 69.3047C519.331 70.1825 517.64 71.2129 516.062 72.3959L512.857 70.4751L508.647 74.4059L510.338 77.7388C509.041 79.2399 507.909 80.8427 506.917 82.4965L503.228 81.9368L500.836 87.2033L503.673 89.6203C503.063 91.4776 502.617 93.3984 502.337 95.3193L498.712 96.2225L498.521 101.998L502.07 103.143C502.223 105.089 502.528 107.023 502.999 108.931L500.01 111.144L502.045 116.551L505.759 116.271C506.637 117.988 507.667 119.655 508.85 121.258L506.929 124.438L510.873 128.661L514.18 126.969C515.693 128.254 517.283 129.399 518.937 130.391L518.39 134.068L523.643 136.472L526.06 133.648C527.93 134.246 529.838 134.678 531.772 134.971L532.675 138.584L538.45 138.787L539.607 135.225C541.553 135.073 543.487 134.767 545.395 134.284L547.608 137.273L553.027 135.251L552.721 131.536C554.439 130.658 556.118 129.641 557.708 128.445L560.9 130.353ZM530.856 106.018C527.752 102.698 527.93 97.4819 531.25 94.3907C534.57 91.2867 539.785 91.4648 542.889 94.785C545.992 98.1052 545.814 103.321 542.482 106.425C539.162 109.516 533.959 109.338 530.856 106.018Z" fill="#EBEBEB"/>
<path d="M407.026 301.973L393.874 292.89C393.874 292.877 393.874 292.865 393.861 292.865C392.564 288.082 390.77 283.489 388.569 279.164L391.94 265.934L372.86 245.504L359.428 247.959C355.268 245.479 350.804 243.367 346.135 241.751C346.123 241.751 346.11 241.751 346.097 241.739L337.931 227.987L309.998 227.033L300.916 240.187C300.903 240.187 300.878 240.2 300.865 240.2C296.095 241.497 291.49 243.291 287.178 245.479L273.962 242.108L253.534 261.189L255.989 274.597C255.989 274.597 255.989 274.61 255.976 274.61C253.445 278.821 251.384 283.286 249.769 287.954L236.018 296.121L235.064 324.07L248.23 333.165C249.527 337.974 251.27 342.566 253.508 346.929L250.15 360.121L269.23 380.551L282.574 378.109C286.784 380.602 291.261 382.701 295.993 384.329H296.006L304.159 398.055L332.093 399.009L341.175 385.869C346.008 384.571 350.613 382.777 354.976 380.577L368.141 383.935L388.569 364.853L386.114 351.445C388.646 347.235 390.706 342.77 392.322 338.088L406.072 329.921L407.026 301.973ZM319.958 344.449C302.595 343.851 289.023 329.272 289.621 311.946C290.218 294.582 304.745 281.009 322.12 281.607C339.483 282.205 353.055 296.732 352.457 314.109C351.859 331.422 337.321 345.047 319.958 344.449Z" fill="#EBEBEB"/>
<path d="M436.994 222.619C436.968 222.619 436.93 222.619 436.905 222.619L414.874 221.869C413.958 221.843 413.118 221.347 412.66 220.559L406.733 210.572C403.578 209.428 400.475 207.99 397.473 206.273L387.92 208.016C387.017 208.181 386.101 207.876 385.478 207.201L370.43 191.096C369.807 190.422 369.565 189.481 369.794 188.603L372.198 179.177C370.735 176.187 369.514 173.007 368.56 169.674L358.982 163.059C358.232 162.538 357.786 161.673 357.825 160.757L358.575 138.724C358.6 137.808 359.097 136.968 359.885 136.51L369.896 130.57C371.079 127.326 372.516 124.222 374.182 121.347L372.427 111.768C372.262 110.865 372.567 109.949 373.241 109.325L389.357 94.2764C390.032 93.6531 390.973 93.4114 391.851 93.6403L401.301 96.0573C404.367 94.569 407.534 93.3477 410.778 92.4064L417.392 82.8274C417.914 82.0769 418.766 81.6062 419.695 81.6698L441.726 82.4203C442.641 82.4458 443.481 82.9419 443.939 83.7306L449.879 93.7421C453.034 94.8997 456.125 96.3372 459.076 98.0291L468.679 96.2736C469.582 96.1082 470.498 96.4135 471.122 97.0877L486.169 113.205C486.793 113.88 487.034 114.821 486.805 115.699L484.389 125.163C485.877 128.229 487.098 131.396 488.039 134.64L497.605 141.255C498.355 141.777 498.788 142.642 498.762 143.558L498.012 165.591C497.986 166.507 497.49 167.346 496.701 167.804L486.691 173.745C485.508 176.989 484.071 180.08 482.404 182.955L484.16 192.547C484.325 193.45 484.02 194.366 483.345 194.989L467.242 210.025C466.568 210.649 465.639 210.891 464.749 210.662L455.336 208.257C452.232 209.758 449.04 210.98 445.809 211.908L439.207 221.474C438.698 222.187 437.871 222.619 436.994 222.619ZM416.527 216.551L435.62 217.2L441.942 208.041C442.298 207.519 442.845 207.138 443.456 206.972C446.966 206.031 450.464 204.695 453.822 202.991C453.822 202.991 453.835 202.991 453.835 202.978C454.395 202.698 455.056 202.622 455.692 202.787L464.647 205.064L478.614 192.025L476.947 182.904C476.833 182.255 476.947 181.594 477.291 181.034C479.135 177.981 480.7 174.623 481.934 171.074C482.137 170.437 482.57 169.916 483.129 169.585L492.695 163.899L493.343 144.805L484.185 138.482C483.702 138.151 483.346 137.668 483.167 137.121C483.142 137.057 483.129 136.981 483.104 136.905C482.15 133.394 480.814 129.946 479.148 126.664C478.855 126.079 478.779 125.418 478.944 124.782L481.234 115.775L468.196 101.807L459.05 103.486C458.414 103.601 457.753 103.486 457.193 103.156C454.013 101.26 450.655 99.6956 447.208 98.4871C447.017 98.4235 446.814 98.3344 446.648 98.2199C446.279 97.9909 445.974 97.6729 445.745 97.304L440.059 87.725L420.967 87.0763L414.645 96.2354C414.263 96.7824 413.703 97.1641 413.067 97.3167C409.531 98.2835 406.097 99.6065 402.828 101.273C402.243 101.566 401.581 101.642 400.945 101.477L391.94 99.1867L377.973 112.226L379.639 121.347C379.741 121.919 379.665 122.517 379.398 123.026C379.359 123.102 379.321 123.166 379.27 123.242C377.426 126.308 375.861 129.679 374.628 133.241C374.424 133.839 374.004 134.348 373.457 134.666L363.879 140.352L363.231 159.446L372.402 165.782C372.923 166.138 373.305 166.672 373.47 167.295C374.462 170.959 375.785 174.432 377.426 177.625C377.515 177.803 377.591 178.007 377.642 178.197C377.744 178.63 377.744 179.075 377.642 179.508L375.353 188.476L388.391 202.444L397.473 200.777C398.109 200.663 398.77 200.777 399.317 201.108C402.548 203.016 405.932 204.594 409.353 205.777C409.977 205.967 410.511 206.387 410.841 206.96L416.527 216.551ZM428.319 192.419C427.848 192.419 427.377 192.407 426.907 192.394C404.71 191.631 387.284 172.956 388.035 150.771C388.798 128.572 407.496 111.145 429.654 111.895C451.851 112.658 469.277 131.333 468.527 153.518C468.158 164.255 463.629 174.216 455.769 181.556C448.251 188.59 438.546 192.419 428.319 192.419ZM428.268 117.251C409.569 117.251 394.051 132.134 393.402 150.962C392.741 170.196 407.852 186.377 427.085 187.038C436.409 187.356 445.287 184.024 452.105 177.65C458.91 171.29 462.841 162.652 463.159 153.353C463.82 134.119 448.709 117.938 429.476 117.276C429.069 117.251 428.675 117.251 428.268 117.251Z" fill="#EBEBEB"/>
<path d="M487.735 64.0756L478.615 61.6204L476.16 52.4994L479.734 48.9248L483.5 56.7355L491.31 60.501L487.735 64.0756Z" fill="#E0E0E0"/>
<path d="M488.296 57.9703C489.962 56.3038 489.962 53.5943 488.296 51.9405C486.63 50.2741 483.933 50.2868 482.279 51.9532L486.82 45.1475L492.913 48.226L494.249 54.6247L488.296 57.9703Z" fill="#E0E0E0"/>
<path d="M479.01 49.6503L485.7 42.959L494.821 45.4142L497.276 54.5352L490.585 61.2265L481.465 58.7713L479.01 49.6503ZM491.157 55.1203C492.824 53.4539 492.824 50.7443 491.157 49.0905C489.491 47.4241 486.794 47.4368 485.141 49.1033C483.474 50.7697 483.474 53.4539 485.141 55.1076C486.794 56.7614 489.491 56.7741 491.157 55.1203Z" fill="#F0F0F0"/>
<path d="M114.759 307.545L119.656 306.222L120.966 301.324L119.058 299.416L117.036 303.601L112.838 305.624L114.759 307.545Z" fill="#E0E0E0"/>
<path d="M114.453 304.262C113.563 303.371 113.563 301.921 114.453 301.018C115.344 300.128 116.794 300.128 117.684 301.031L115.255 297.38L111.986 299.034L111.273 302.468L114.453 304.262Z" fill="#E0E0E0"/>
<path d="M119.439 299.797L115.852 296.21L110.955 297.52L109.645 302.418L113.232 306.005L118.129 304.695L119.439 299.797ZM112.926 302.736C112.036 301.845 112.036 300.395 112.926 299.492C113.817 298.602 115.267 298.602 116.157 299.505C117.048 300.395 117.048 301.833 116.157 302.736C115.267 303.614 113.817 303.626 112.926 302.736Z" fill="#F0F0F0"/>
<path d="M97.1301 39.0663L101.188 43.1243C102.244 44.1801 103.973 44.1801 105.042 43.1243C106.098 42.0684 106.098 40.3384 105.042 39.2825L100.984 35.2245C99.9285 34.1687 98.1986 34.1687 97.1428 35.2245C96.0743 36.2804 96.0743 38.0104 97.1301 39.0663Z" fill="#F0F0F0"/>
<path d="M94.2672 28.9406C97.3963 27.8211 100.793 29.284 101.848 32.2226C102.904 35.1612 101.225 38.4559 98.096 39.5881C94.9668 40.7075 91.5706 39.2446 90.5148 36.3061C89.4591 33.3675 91.1381 30.0727 94.2672 28.9406Z" fill="#E0E0E0"/>
<path d="M89.8485 35.6206L90.4375 37.2607L102.528 32.918L101.939 31.2779L89.8485 35.6206Z" fill="#F0F0F0"/>
<path d="M317.999 474C454.208 474 564.627 467.553 564.627 459.599C564.627 451.646 454.208 445.199 317.999 445.199C181.79 445.199 71.3711 451.646 71.3711 459.599C71.3711 467.553 181.79 474 317.999 474Z" fill="#F5F5F5"/>
<path d="M110.309 83.5655C109.037 77.9682 109.609 73.2487 112.013 69.4196C114.43 65.5906 118.411 63.0464 123.983 61.7743C129.694 60.4767 134.439 61.011 138.229 63.3771C142.02 65.7433 144.538 69.6868 145.798 75.2077C146.713 79.2149 146.777 82.6623 146.014 85.5372C145.251 88.4122 143.75 90.8547 141.524 92.8646C139.298 94.8745 136.283 96.312 132.467 97.177C128.6 98.0548 125.255 98.1693 122.444 97.5078C119.633 96.8463 117.127 95.3706 114.952 93.0554C112.764 90.7402 111.212 87.5853 110.309 83.5655ZM120.917 81.2121C121.706 84.6722 122.914 87.0256 124.543 88.2341C126.171 89.4553 128.091 89.8115 130.317 89.3027C132.594 88.7811 134.184 87.649 135.1 85.8807C136.016 84.1125 136.029 81.3139 135.164 77.4721C134.426 74.2409 133.243 72.0275 131.602 70.8317C129.961 69.6359 128.028 69.2924 125.789 69.8013C123.652 70.2847 122.1 71.4296 121.159 73.236C120.205 75.0551 120.116 77.7138 120.917 81.2121Z" fill="#263238"/>
<path d="M150.848 79.3668C149.983 75.5759 150.555 72.1539 152.552 69.1136C154.549 66.0732 157.729 64.0633 162.08 63.0711C167.053 61.9389 171.149 62.5241 174.342 64.8393C176.911 66.6966 178.59 69.3298 179.366 72.7391C180.231 76.5681 179.684 79.9901 177.7 83.005C175.715 86.0199 172.484 88.0425 168.007 89.0602C164.013 89.9634 160.553 89.6963 157.628 88.2206C154.04 86.4015 151.776 83.4502 150.848 79.3668ZM160.4 77.1787C160.909 79.3922 161.723 80.9314 162.868 81.7838C164 82.6361 165.26 82.9159 166.608 82.6106C167.982 82.2926 168.986 81.5166 169.635 80.27C170.284 79.0233 170.335 77.2423 169.813 74.9398C169.317 72.79 168.516 71.2762 167.384 70.4366C166.252 69.5842 165.031 69.3044 163.72 69.6097C162.334 69.9277 161.304 70.7164 160.642 72.0013C159.981 73.2606 159.904 74.9907 160.4 77.1787Z" fill="#263238"/>
<path d="M188.995 93.6399L181.197 59.3184L190.114 57.2958L190.954 60.9722C191.831 59.1531 192.734 57.8428 193.637 57.0668C194.859 56.0237 196.309 55.2986 198 54.917C201.32 54.1664 204.182 54.8534 206.574 56.9778C208.965 59.1022 210.593 62.0408 211.445 65.7935C212.387 69.9278 212.107 73.3116 210.631 75.9322C209.143 78.5654 206.892 80.2192 203.864 80.9061C202.402 81.2369 201.002 81.2877 199.679 81.0715C198.357 80.8425 197.11 80.3464 195.927 79.5831L198.624 91.4519L188.995 93.6399ZM193.587 69.6607C194.032 71.6324 194.782 72.9936 195.825 73.7569C196.868 74.5201 198.026 74.7618 199.285 74.4693C200.392 74.2148 201.219 73.5533 201.766 72.472C202.312 71.3908 202.325 69.7497 201.829 67.5744C201.371 65.5645 200.646 64.1779 199.654 63.4019C198.662 62.6386 197.606 62.3842 196.474 62.6387C195.253 62.9185 194.35 63.6182 193.752 64.7631C193.154 65.8825 193.103 67.5235 193.587 69.6607Z" fill="#263238"/>
<path d="M215.516 70.4119L224.764 67.3715C225.412 68.4019 226.137 69.0889 226.951 69.4069C227.766 69.7249 228.758 69.7631 229.928 69.496C231.213 69.2034 232.141 68.7073 232.714 68.0076C233.172 67.4733 233.324 66.9136 233.184 66.303C233.032 65.616 232.548 65.1708 231.747 64.9545C231.175 64.8019 229.737 64.7892 227.422 64.9037C223.988 65.0817 221.558 65.069 220.159 64.8655C218.76 64.662 217.488 64.0768 216.343 63.11C215.198 62.1432 214.448 60.9092 214.117 59.4081C213.748 57.7671 213.901 56.2533 214.588 54.854C215.275 53.4547 216.381 52.2716 217.92 51.3048C219.459 50.338 221.635 49.5366 224.433 48.9005C227.397 48.2263 229.635 47.9592 231.149 48.0864C232.663 48.2136 233.998 48.6588 235.156 49.3839C236.313 50.1218 237.395 51.2285 238.387 52.7169L229.559 55.6554C229.139 54.9049 228.618 54.4215 227.995 54.1671C227.13 53.8363 226.176 53.7982 225.107 54.0399C224.026 54.2816 223.288 54.6505 222.881 55.1466C222.474 55.6427 222.334 56.1643 222.461 56.7113C222.601 57.3219 223.021 57.7035 223.708 57.8816C224.407 58.047 225.819 58.0215 227.969 57.7926C231.213 57.4364 233.693 57.3982 235.372 57.6781C237.064 57.9707 238.45 58.6067 239.544 59.6117C240.638 60.6166 241.338 61.8251 241.656 63.2372C241.986 64.6747 241.872 66.163 241.312 67.715C240.753 69.267 239.633 70.6536 237.954 71.8875C236.275 73.1087 233.82 74.0883 230.615 74.8261C226.074 75.8565 222.69 75.9455 220.477 75.0932C218.264 74.2282 216.61 72.6762 215.516 70.4119Z" fill="#263238"/>
<path d="M246.578 38.9396L257.021 38.876L257.072 46.8903L255.151 63.0079L248.69 63.046L246.629 46.9539L246.578 38.9396ZM247.087 65.5139L256.83 65.463L256.881 74.0752L247.138 74.1261L247.087 65.5139Z" fill="#263238"/>
<path d="M163.681 148.366C163.605 148.366 163.529 148.354 163.452 148.328C157.728 146.115 154.307 143.939 152.526 141.344C151.229 141.599 149.791 141.433 148.417 140.784C147.082 140.148 145.797 139.042 144.881 137.452C144.016 138.113 142.961 138.291 141.79 137.935C140.493 137.528 139.157 136.447 138.038 134.869C137.326 135.378 136.601 135.454 136.066 135.416C132.288 135.111 127.162 127.58 126.793 119.553C126.781 119.197 127.048 118.904 127.404 118.891C127.747 118.866 128.053 119.146 128.065 119.502C128.409 127.122 133.293 133.915 136.168 134.144C136.639 134.195 137.02 134.042 137.351 133.788C135.621 130.76 134.731 126.435 136.054 121.817C137.147 118.001 138.114 116.5 139.272 116.78C141.46 117.327 141.18 125.646 140.009 131.142C139.742 132.389 139.361 133.279 138.928 133.915C139.933 135.403 141.116 136.396 142.159 136.726C143.088 137.019 143.775 136.777 144.283 136.281C143.279 133.813 143.075 130.468 144.436 126.181C146.217 120.545 146.942 120.393 147.374 120.304C147.68 120.24 147.985 120.342 148.188 120.583C149.359 121.906 147.959 130.658 146.484 134.984C146.293 135.543 146.051 136.04 145.772 136.459C146.56 138.011 147.731 139.067 148.939 139.64C149.918 140.11 150.923 140.276 151.826 140.187C151.712 139.945 151.61 139.703 151.521 139.449C150.516 136.714 151 133.559 153.022 129.806C154.37 127.313 155.464 126.155 156.469 126.155C156.774 126.155 157.321 126.27 157.728 126.995C158.835 129.043 158.034 135.798 155.846 139.143C155.324 139.932 154.612 140.53 153.785 140.924C155.49 143.163 158.721 145.135 163.898 147.145C164.228 147.272 164.394 147.641 164.267 147.972C164.177 148.214 163.936 148.366 163.681 148.366ZM156.495 127.415C156.495 127.415 155.77 127.415 154.167 130.404C152.322 133.813 151.865 136.625 152.729 139.004C152.831 139.296 152.958 139.576 153.111 139.856C153.785 139.563 154.37 139.093 154.79 138.457C156.571 135.734 157.423 130.137 156.762 127.949C156.635 127.491 156.495 127.415 156.495 127.415ZM147.362 122.059C147.031 122.682 146.484 123.942 145.657 126.55C144.563 129.997 144.563 132.757 145.174 134.882C145.212 134.78 145.25 134.666 145.288 134.564C146.789 130.175 147.514 124.158 147.362 122.059ZM138.992 118.052C138.776 118.255 138.165 119.057 137.275 122.148C136.104 126.232 136.829 129.959 138.203 132.643C138.47 132.096 138.648 131.46 138.776 130.862C140.086 124.603 139.704 118.955 138.992 118.052Z" fill="#263238"/>
<path d="M212.043 215.037C210.109 215.037 208.061 214.592 206.242 213.524C205.937 213.345 205.835 212.951 206.013 212.659C206.191 212.353 206.586 212.251 206.878 212.43C211.419 215.088 217.283 213.231 218.492 211.297C218.632 211.068 218.759 210.776 218.683 210.445C216.889 210.636 214.676 210.165 212.157 208.575C208.926 206.552 208.672 205.955 208.685 205.471C208.697 205.191 208.863 204.937 209.117 204.81C210.389 204.174 216.126 206.807 218.517 208.384C218.835 208.588 219.09 208.817 219.306 209.046C220.362 208.791 221.188 208.244 221.723 207.583C222.091 207.138 222.346 206.641 222.473 206.158C222.384 206.171 222.308 206.184 222.219 206.184C220.183 206.387 218.148 205.509 215.973 203.512C214.485 202.138 213.9 201.184 214.091 200.421C214.154 200.179 214.358 199.747 215.006 199.594C216.762 199.161 221.112 201.006 222.88 202.952C223.274 203.385 223.554 203.906 223.694 204.453C225.348 203.677 227.103 201.922 229.189 199.022C229.393 198.742 229.787 198.665 230.08 198.869C230.359 199.072 230.436 199.467 230.232 199.759C227.828 203.118 225.831 205.026 223.809 205.802C223.732 206.692 223.363 207.608 222.702 208.397C222.053 209.173 221.112 209.834 219.929 210.191C220.056 210.763 219.942 211.374 219.573 211.959C218.504 213.689 215.426 215.037 212.043 215.037ZM210.911 206.222C211.343 206.54 211.954 206.96 212.831 207.507C214.561 208.588 216.1 209.084 217.411 209.186C215.299 207.875 212.539 206.718 210.911 206.222ZM215.35 200.815C215.426 201.019 215.706 201.54 216.838 202.583C218.733 204.326 220.451 205.115 222.091 204.924C222.231 204.911 222.359 204.886 222.499 204.861C222.409 204.479 222.219 204.11 221.952 203.805C220.158 201.858 216.215 200.612 215.35 200.815Z" fill="#263238"/>
<path d="M228.884 213.294L209.066 216.894L191.067 118.675L152.831 125.621L90.5156 236.294L97.2063 272.816L177.139 258.301L182.608 288.17L220.845 281.225L215.375 251.356L235.193 247.756L228.884 213.294ZM128.587 231.523L161.608 173.554L170.817 223.853L128.587 231.523Z" fill="#407BFF"/>
<path d="M388.507 111.997C387.769 105.216 386.408 99.1866 384.437 93.9073C382.465 88.6408 379.501 83.4633 375.546 78.4003C371.59 73.3373 366.196 68.9358 359.391 65.2086C352.573 61.4813 343.58 58.8862 332.399 57.436C309.134 54.4084 290.996 58.53 277.983 69.8263C264.971 81.1226 256.41 102.748 252.289 134.717C250.61 147.717 250.203 159.739 251.042 170.768C251.882 181.81 253.917 190.677 257.122 197.393C261.511 206.832 267.718 214.363 275.757 219.999C283.783 225.634 294.786 229.361 308.766 231.18C333.697 234.424 352.166 229.641 364.187 216.818C376.207 203.996 384.182 182.332 388.113 151.814C389.856 138.228 389.983 124.947 388.507 111.997Z" fill="#407BFF"/>
<path d="M320.252 218.141C317.2 218.04 313.943 217.76 310.572 217.327C298.934 215.813 289.915 212.862 283.797 208.562C277.755 204.326 273.176 198.742 269.818 191.503L269.754 191.376C267.312 186.262 265.709 178.973 265.009 169.712C264.233 159.675 264.628 148.506 266.18 136.51C270.721 101.247 280.095 86.5292 287.168 80.3976C295.41 73.2484 306.527 70.0172 321.168 70.5133C324.17 70.6151 327.35 70.8823 330.606 71.3148C340.006 72.536 347.435 74.6222 352.701 77.4972C357.802 80.2831 361.783 83.4888 364.543 87.0253C367.596 90.9434 369.886 94.8996 371.349 98.8177C372.9 102.978 374.007 107.926 374.618 113.523C375.979 125.367 375.839 137.63 374.249 150.058C370.725 177.459 363.907 196.706 353.998 207.278C346.621 215.114 335.593 218.663 320.252 218.141Z" fill="#263238"/>
<path d="M345.144 112.366L345.309 107.545L342.345 106.578C342.218 104.937 341.951 103.309 341.557 101.744L344.063 99.8993L342.358 95.3706L339.254 95.625C338.517 94.1621 337.652 92.7755 336.672 91.4653L338.275 88.7811L334.968 85.2574L332.195 86.6821C330.948 85.6263 329.625 84.6595 328.226 83.8072L328.671 80.7287L324.27 78.7315L322.26 81.0976C320.721 80.6015 319.131 80.2325 317.49 79.9781L316.74 76.9632L311.906 76.7979L310.952 79.7619C309.299 79.9018 307.683 80.1562 306.119 80.5506L304.262 78.0572L299.733 79.7491L299.988 82.8531C298.525 83.6036 297.138 84.4687 295.828 85.4482L293.157 83.8453L289.621 87.1401L291.046 89.926C289.99 91.16 289.023 92.4957 288.184 93.895L285.105 93.437L283.096 97.8385L285.474 99.8484C284.978 101.388 284.584 102.991 284.355 104.619L281.327 105.382L281.162 110.203L284.139 111.17C284.266 112.824 284.533 114.44 284.927 116.004L282.421 117.849L284.126 122.377L287.23 122.123C287.967 123.586 288.832 124.973 289.812 126.283L288.209 128.967L291.516 132.491L294.289 131.066C295.523 132.122 296.859 133.089 298.258 133.941L297.8 137.019L302.201 139.017L304.223 136.651C305.763 137.147 307.353 137.516 308.993 137.77L309.744 140.785L314.578 140.95L315.532 137.986C317.185 137.846 318.801 137.592 320.365 137.198L322.21 139.691L326.738 137.999L326.496 134.895C327.959 134.144 329.346 133.279 330.656 132.3L333.327 133.903L336.863 130.608L335.438 127.822C336.494 126.588 337.461 125.252 338.3 123.853L341.379 124.311L343.388 119.91L341.01 117.9C341.506 116.36 341.887 114.77 342.129 113.129L345.144 112.366ZM312.581 127.987C302.023 127.631 293.768 118.777 294.124 108.219C294.48 97.6477 303.333 89.3917 313.891 89.7479C324.448 90.1041 332.704 98.958 332.347 109.529C331.979 120.075 323.138 128.344 312.581 127.987Z" fill="#407BFF"/>
<path opacity="0.3" d="M365.217 200.879L365.561 197.635L363.615 196.834C363.602 195.714 363.513 194.608 363.322 193.539L365.103 192.407L364.2 189.265L362.088 189.278C361.656 188.247 361.16 187.268 360.562 186.339L361.77 184.609L359.722 182.065L357.776 182.879C357 182.103 356.161 181.391 355.245 180.754L355.715 178.681L352.853 177.104L351.353 178.617C350.322 178.185 349.266 177.867 348.198 177.612L347.842 175.526L344.598 175.157L343.797 177.104C342.678 177.116 341.584 177.218 340.502 177.409L339.37 175.615L336.228 176.531L336.241 178.643C335.224 179.075 334.244 179.571 333.303 180.169L331.573 178.948L329.029 180.996L329.843 182.943C329.093 183.719 328.355 184.558 327.719 185.474L325.671 185.016L324.094 187.878L325.595 189.354C325.175 190.397 324.844 191.44 324.59 192.521L322.504 192.865L322.16 196.109L324.106 196.923C324.094 198.03 324.208 199.124 324.399 200.205L322.605 201.337L323.521 204.479H325.633C326.065 205.497 326.561 206.477 327.159 207.405L325.938 209.135L327.973 211.692L329.932 210.865C330.708 211.641 331.548 212.354 332.463 212.99L331.993 215.063L334.855 216.641L336.356 215.14C337.386 215.559 338.442 215.877 339.51 216.132L339.866 218.218L343.11 218.587L343.911 216.628C345.018 216.615 346.125 216.513 347.206 216.323L348.338 218.116L351.467 217.2V215.089C352.485 214.656 353.464 214.16 354.405 213.562L356.123 214.783L358.679 212.748L357.852 210.802C358.628 210.026 359.341 209.186 359.989 208.27L362.037 208.728L363.615 205.866L362.114 204.39C362.533 203.347 362.851 202.304 363.106 201.235L365.217 200.879ZM348.847 199.62C347.333 202.368 343.886 203.385 341.138 201.871C338.391 200.358 337.399 196.91 338.9 194.163C340.413 191.415 343.848 190.423 346.595 191.924C349.343 193.437 350.348 196.872 348.847 199.62Z" fill="#407BFF"/>
<path d="M383.242 145.911L379.451 143.29C379.451 143.29 379.451 143.29 379.451 143.278C379.082 141.904 378.561 140.568 377.925 139.334L378.891 135.518L373.396 129.628L369.53 130.34C368.334 129.628 367.049 129.017 365.701 128.547H365.688L363.335 124.578L355.283 124.298L352.663 128.089H352.65C351.276 128.458 349.953 128.979 348.707 129.615L344.891 128.648L339.002 134.144L339.714 138.011C338.989 139.22 338.391 140.517 337.92 141.853L333.952 144.206L333.672 152.259L337.462 154.879C337.831 156.266 338.34 157.589 338.989 158.848L338.022 162.652L343.517 168.542L347.359 167.842C348.567 168.554 349.864 169.165 351.225 169.636L353.579 173.592L361.63 173.872L364.251 170.081C365.637 169.712 366.973 169.191 368.232 168.554L372.023 169.521L377.912 164.026L377.2 160.159C377.925 158.95 378.523 157.653 378.993 156.304L382.962 153.951L383.242 145.911ZM358.145 158.149C353.133 157.983 349.228 153.773 349.394 148.786C349.559 143.774 353.757 139.868 358.756 140.034C363.767 140.199 367.672 144.397 367.507 149.397C367.342 154.396 363.144 158.327 358.145 158.149Z" fill="white"/>
<path d="M410.907 81.6316L411.568 80.0288C412.039 79.7871 412.497 79.4818 412.904 79.1637L414.38 79.2146L416.11 76.734L415.55 75.3729C415.715 74.8767 415.842 74.3552 415.906 73.8209L417.178 72.6505L416.644 69.6738L415.041 69.0123C414.799 68.5416 414.507 68.0964 414.176 67.6893L414.227 66.2137L411.747 64.4836L410.386 65.0433C409.877 64.8652 409.368 64.7508 408.834 64.6871L407.663 63.415L404.687 63.9493L404.026 65.5522C403.542 65.7939 403.097 66.0865 402.69 66.4172L401.214 66.3663L399.484 68.8469L400.044 70.2081C399.879 70.7169 399.752 71.2258 399.688 71.7728L398.416 72.9431L398.95 75.9199L400.553 76.5814C400.795 77.0648 401.1 77.51 401.431 77.9171L401.38 79.38L403.86 81.1101L405.221 80.5503C405.73 80.7284 406.239 80.8429 406.773 80.9065L407.943 82.1786L410.907 81.6316ZM404.433 73.3756C404.102 71.5184 405.336 69.7629 407.18 69.4321C409.037 69.1014 410.793 70.3353 411.123 72.1799C411.454 74.0371 410.22 75.7926 408.376 76.1234C406.544 76.4669 404.763 75.2329 404.433 73.3756Z" fill="#407BFF"/>
<path d="M376.016 73.1972L375.049 72.3831C376.741 70.3859 379.132 67.8544 382.694 65.9844L383.279 67.1165C379.475 69.0883 377.046 71.9633 376.016 73.1972Z" fill="#407BFF"/>
<path d="M386.166 65.9592L385.67 64.7889C390.478 62.728 395.502 61.9266 400.603 62.3973L400.489 63.6694C395.591 63.1987 390.783 63.9747 386.166 65.9592Z" fill="#407BFF"/>
<path d="M383.763 74.762L382.707 74.0497C385.315 70.2079 390.479 66.875 395.262 65.9209L395.503 67.1676C391.039 68.058 386.205 71.1747 383.763 74.762Z" fill="#407BFF"/>
<path d="M299.353 197.177C299.188 197.177 299.022 197.113 298.895 196.986L296.224 194.238C294.863 194.111 293.527 193.857 292.217 193.488L288.058 195.32C287.854 195.409 287.625 195.383 287.447 195.269L280.477 190.651C280.299 190.537 280.184 190.333 280.197 190.117L280.26 185.588C279.408 184.532 278.658 183.387 278.009 182.179L274.435 180.792C274.231 180.716 274.079 180.538 274.04 180.322L272.374 172.129C272.336 171.913 272.4 171.697 272.552 171.544L275.3 168.873C275.427 167.524 275.681 166.176 276.037 164.865L274.206 160.718C274.117 160.515 274.142 160.286 274.257 160.108L278.874 153.137C278.989 152.958 279.167 152.844 279.408 152.857L283.937 152.92C285.005 152.068 286.15 151.317 287.346 150.681L288.732 147.107C288.808 146.903 288.986 146.751 289.203 146.712L297.394 145.046C297.611 145.008 297.827 145.071 297.979 145.224L300.638 147.972C301.986 148.099 303.335 148.353 304.645 148.71L308.791 146.878C308.995 146.789 309.224 146.814 309.402 146.929L316.373 151.546C316.551 151.661 316.665 151.864 316.652 152.081L316.589 156.622C317.441 157.678 318.192 158.823 318.828 160.019L322.402 161.405C322.605 161.482 322.758 161.66 322.796 161.876L324.463 170.068C324.501 170.285 324.437 170.501 324.284 170.653L321.537 173.325C321.41 174.661 321.155 176.009 320.786 177.319L322.618 181.479C322.707 181.683 322.682 181.912 322.567 182.09L317.95 189.048C317.835 189.226 317.645 189.315 317.416 189.328L312.887 189.264C311.832 190.104 310.687 190.855 309.478 191.503L308.092 195.078C308.016 195.282 307.837 195.434 307.621 195.472L299.43 197.139C299.442 197.177 299.404 197.177 299.353 197.177ZM292.192 192.178C292.255 192.178 292.306 192.19 292.37 192.203C293.731 192.597 295.143 192.865 296.58 192.992C296.733 193.004 296.873 193.068 296.987 193.183L299.582 195.854L307.087 194.327L308.435 190.855C308.486 190.715 308.601 190.587 308.741 190.524C310.013 189.862 311.221 189.074 312.328 188.17C312.442 188.081 312.569 188.018 312.735 188.03L317.149 188.094L321.384 181.708L319.603 177.663C319.54 177.523 319.54 177.37 319.578 177.23C319.985 175.844 320.239 174.419 320.367 173.02C320.379 172.867 320.443 172.727 320.557 172.613L323.229 170.017L321.702 162.512L318.23 161.164C318.077 161.113 317.963 160.998 317.886 160.858C317.225 159.586 316.436 158.39 315.533 157.284C315.431 157.169 315.38 157.017 315.393 156.864L315.457 152.45L309.071 148.214L305.026 149.994C304.886 150.058 304.734 150.058 304.594 150.02C303.22 149.613 301.795 149.358 300.371 149.231C300.218 149.218 300.078 149.155 299.964 149.04L297.382 146.369L289.877 147.896L288.528 151.368C288.478 151.508 288.363 151.635 288.223 151.699C286.951 152.361 285.756 153.149 284.636 154.052C284.522 154.142 284.369 154.218 284.216 154.192L279.803 154.129L275.567 160.515L277.348 164.56C277.424 164.738 277.424 164.929 277.335 165.107C276.979 166.379 276.712 167.791 276.597 169.216C276.584 169.369 276.521 169.509 276.406 169.623L273.735 172.218L275.262 179.724L278.734 181.072C278.887 181.136 279.014 181.25 279.078 181.403C279.739 182.662 280.528 183.858 281.418 184.952C281.52 185.066 281.571 185.219 281.571 185.372L281.507 189.786L287.892 194.022L291.937 192.241C292.014 192.203 292.103 192.178 292.192 192.178ZM298.437 188.069C295.219 188.069 291.976 187.153 289.101 185.257C285.323 182.751 282.754 178.935 281.85 174.495C280.947 170.056 281.825 165.54 284.331 161.761C289.508 153.976 300.04 151.826 307.825 156.991C315.609 162.156 317.746 172.702 312.582 180.487C309.338 185.41 303.945 188.069 298.437 188.069ZM285.399 162.461C283.084 165.947 282.27 170.132 283.11 174.241C283.949 178.35 286.328 181.873 289.813 184.189C297.025 188.959 306.769 186.987 311.539 179.787C316.309 172.587 314.337 162.83 307.138 158.047C299.926 153.277 290.182 155.261 285.399 162.461Z" fill="white"/>
<path d="M541.656 224.782L521.698 222.085L534.901 123.102L496.385 117.899L402.957 203.932L398.047 240.734L478.552 251.598L474.532 281.696L513.048 286.899L517.068 256.801L537.026 259.498L541.656 224.782ZM440.633 211.145L489.936 166.201L483.169 216.882L440.633 211.145Z" fill="#407BFF"/>
<path d="M501.333 285.958C501.295 285.958 501.257 285.958 501.219 285.945C500.875 285.881 500.646 285.551 500.71 285.207L530.386 122.466C530.449 122.123 530.78 121.907 531.123 121.958C531.467 122.021 531.696 122.352 531.632 122.695L501.956 285.436C501.905 285.741 501.638 285.958 501.333 285.958Z" fill="#263238"/>
<path d="M527.663 125.201C527.638 125.774 527.167 126.232 526.582 126.206C525.997 126.181 525.552 125.71 525.577 125.125C525.603 124.54 526.073 124.095 526.658 124.12C527.231 124.146 527.689 124.616 527.663 125.201Z" fill="#263238"/>
<path d="M523.427 147.209C523.402 147.782 522.931 148.24 522.346 148.214C521.773 148.189 521.315 147.718 521.341 147.133C521.366 146.56 521.837 146.103 522.422 146.128C522.994 146.153 523.44 146.637 523.427 147.209Z" fill="#263238"/>
<path d="M519.192 169.216C519.167 169.789 518.696 170.246 518.111 170.221C517.539 170.196 517.081 169.725 517.106 169.14C517.132 168.567 517.603 168.109 518.188 168.135C518.76 168.16 519.205 168.644 519.192 169.216Z" fill="#263238"/>
<path d="M510.847 192.127C510.821 192.7 510.351 193.158 509.766 193.132C509.181 193.107 508.735 192.636 508.761 192.051C508.786 191.478 509.257 191.02 509.842 191.046C510.427 191.071 510.872 191.555 510.847 192.127Z" fill="#263238"/>
<path d="M510.708 213.232C510.683 213.804 510.212 214.262 509.627 214.237C509.042 214.211 508.597 213.741 508.622 213.155C508.648 212.57 509.118 212.125 509.703 212.15C510.288 212.176 510.734 212.659 510.708 213.232Z" fill="#263238"/>
<path d="M506.472 235.239C506.446 235.811 505.976 236.269 505.391 236.244C504.806 236.218 504.36 235.747 504.386 235.162C504.411 234.59 504.882 234.132 505.467 234.157C506.052 234.183 506.485 234.666 506.472 235.239Z" fill="#263238"/>
<path d="M502.236 257.246C502.21 257.819 501.739 258.277 501.154 258.251C500.582 258.226 500.124 257.755 500.149 257.17C500.175 256.598 500.646 256.14 501.231 256.165C501.803 256.191 502.248 256.674 502.236 257.246Z" fill="#263238"/>
<path d="M497.988 279.254C497.962 279.827 497.491 280.285 496.906 280.259C496.334 280.234 495.876 279.763 495.901 279.178C495.927 278.593 496.397 278.147 496.983 278.173C497.568 278.198 498.013 278.682 497.988 279.254Z" fill="#263238"/>
<path d="M509.805 192.725C509.512 192.725 509.245 192.521 509.181 192.216C509.105 191.872 509.321 191.529 509.665 191.465L512.819 190.791C513.163 190.727 513.506 190.931 513.57 191.274C513.646 191.618 513.43 191.961 513.086 192.025L509.932 192.699C509.894 192.724 509.856 192.725 509.805 192.725Z" fill="#263238"/>
<path d="M520.35 181.009C520.35 181.009 517.501 188.425 516.547 192.916C515.593 197.406 515.529 207.443 515.529 207.443" fill="#263238"/>
<path d="M515.529 208.079C515.172 208.079 514.893 207.787 514.893 207.443C514.893 207.036 514.956 197.292 515.923 192.776C516.877 188.285 519.637 181.072 519.752 180.767C519.879 180.436 520.248 180.284 520.578 180.398C520.909 180.525 521.074 180.894 520.947 181.225C520.922 181.301 518.111 188.641 517.169 193.043C516.241 197.419 516.165 207.354 516.165 207.443C516.165 207.799 515.885 208.079 515.529 208.079Z" fill="#263238"/>
<path d="M282.957 317.887C284.725 289.392 281.469 237.579 335.033 244.436C392.451 251.789 376.017 318.93 376.017 318.93L282.957 317.887Z" fill="#263238"/>
<path d="M319.922 300.765C332.834 300.765 343.302 290.296 343.302 277.383C343.302 264.47 332.834 254.002 319.922 254.002C307.01 254.002 296.543 264.47 296.543 277.383C296.543 290.296 307.01 300.765 319.922 300.765Z" fill="white"/>
<path d="M323.001 254.039C311.934 252.144 300.092 260.311 298.922 268.58L342.819 272.612C341.267 263.186 331.778 255.541 323.001 254.039Z" fill="#263238"/>
<path d="M337.821 276.798C337.503 282.904 334.183 287.7 330.379 287.509C326.589 287.318 323.765 282.205 324.083 276.086C324.401 269.98 327.721 265.184 331.524 265.375C335.302 265.578 338.126 270.692 337.821 276.798Z" fill="#263238"/>
<path d="M319.923 302.024C306.338 302.024 295.271 290.969 295.271 277.37C295.271 263.784 306.325 252.717 319.923 252.717C333.508 252.717 344.574 263.771 344.574 277.37C344.574 290.969 333.521 302.024 319.923 302.024ZM319.923 255.274C307.737 255.274 297.815 265.183 297.815 277.383C297.815 289.582 307.724 299.492 319.923 299.492C332.109 299.492 342.03 289.582 342.03 277.383C342.03 265.183 332.109 255.274 319.923 255.274Z" fill="#407BFF"/>
<path opacity="0.3" d="M369.504 317.162C369.453 317.162 369.402 317.162 369.351 317.149C369.008 317.073 368.804 316.729 368.881 316.386C368.919 316.221 372.977 298.971 368.766 281.53C368.677 281.187 368.893 280.843 369.237 280.767C369.568 280.691 369.924 280.894 370 281.238C374.287 298.984 370.153 316.513 370.114 316.691C370.051 316.971 369.784 317.162 369.504 317.162Z" fill="white"/>
<path opacity="0.3" d="M365.955 271.99C365.714 271.99 365.485 271.85 365.37 271.621C363.729 268.046 361.707 264.777 359.341 261.876C359.125 261.609 359.163 261.202 359.43 260.986C359.697 260.757 360.104 260.808 360.32 261.075C362.75 264.052 364.849 267.423 366.528 271.087C366.68 271.405 366.528 271.786 366.21 271.926C366.134 271.964 366.044 271.99 365.955 271.99Z" fill="white"/>
<path d="M163.745 451.561C163.592 451.561 163.427 451.561 163.274 451.561C159.764 451.459 156.991 448.533 157.093 445.022C157.194 441.511 160.082 438.801 163.631 438.84C163.669 438.84 163.707 438.84 163.758 438.84C167.434 438.84 176.274 434.374 194.769 405.218C195.761 403.653 197.39 402.597 199.221 402.33C201.053 402.063 202.923 402.61 204.309 403.831C227.129 423.727 251.31 436.117 251.551 436.244C254.68 437.835 255.927 441.664 254.337 444.793C252.747 447.922 248.918 449.182 245.789 447.592C244.822 447.108 223.694 436.295 201.524 418.142C186.031 441.435 174.532 451.561 163.745 451.561Z" fill="#263238"/>
<path d="M203.101 402.686C202.923 402.686 202.745 402.673 202.554 402.648C200.468 402.355 199.018 400.421 199.31 398.335C200.213 392 199.094 368.275 191.08 349.83C190.355 348.151 190.915 346.191 192.429 345.148C209.855 333.28 246.972 331.855 248.537 331.804C250.635 331.753 252.403 333.381 252.48 335.48C252.556 337.592 250.903 339.348 248.804 339.424C248.46 339.437 216.012 340.683 199.336 349.855C206.433 368.224 208.049 391.122 206.866 399.404C206.599 401.312 204.971 402.686 203.101 402.686Z" fill="#263238"/>
<path d="M209.512 397.737C206.968 391.746 195.532 392.432 188.816 397.559C185.229 400.307 180.37 408.55 179.861 411.54C179.353 414.529 181.426 417.239 184.975 416.933C189.363 416.552 195.38 410.178 195.38 410.178C191.373 414.109 196.537 416.882 204.258 411.196C208.532 408.054 212.348 404.441 209.512 397.737Z" fill="#407BFF"/>
<path d="M428.296 319.566C428.232 319.566 428.182 319.553 428.118 319.541C427.775 319.439 427.584 319.096 427.686 318.752C429.377 312.849 431.234 309.249 433.664 307.239C433.295 305.967 433.333 304.517 433.855 303.092C434.364 301.706 435.356 300.332 436.857 299.276C436.119 298.475 435.852 297.432 436.106 296.248C436.399 294.925 437.353 293.488 438.828 292.229C438.256 291.567 438.116 290.842 438.103 290.308C438.065 286.517 445.112 280.729 453.062 279.647C453.405 279.584 453.736 279.838 453.774 280.194C453.825 280.538 453.583 280.869 453.227 280.907C445.672 281.937 439.337 287.407 439.362 290.295C439.362 290.766 439.541 291.135 439.82 291.44C442.682 289.443 446.905 288.158 451.625 289.074C455.53 289.824 457.12 290.651 456.929 291.834C456.585 294.06 448.266 294.531 442.695 293.857C441.436 293.704 440.507 293.412 439.833 293.03C438.447 294.162 437.556 295.434 437.327 296.503C437.124 297.457 437.429 298.118 437.963 298.589C440.329 297.368 443.649 296.859 448.038 297.839C453.812 299.111 454.029 299.81 454.156 300.23C454.245 300.535 454.169 300.841 453.952 301.07C452.731 302.355 443.891 301.744 439.452 300.663C438.879 300.523 438.358 300.332 437.925 300.09C436.45 301.019 435.508 302.266 435.038 303.538C434.669 304.555 434.58 305.56 434.745 306.464C434.974 306.324 435.203 306.196 435.445 306.095C438.078 304.848 441.258 305.051 445.176 306.731C447.77 307.85 449.03 308.83 449.119 309.835C449.144 310.127 449.093 310.7 448.394 311.158C446.46 312.442 439.655 312.252 436.119 310.369C435.279 309.924 434.631 309.262 434.16 308.473C432.087 310.369 430.408 313.778 428.868 319.108C428.818 319.388 428.563 319.566 428.296 319.566ZM435.19 307.697C435.546 308.346 436.068 308.881 436.742 309.249C439.617 310.776 445.265 311.132 447.376 310.267C447.809 310.089 447.872 309.949 447.872 309.949C447.872 309.949 447.809 309.237 444.692 307.901C441.131 306.374 438.281 306.158 436.004 307.239C435.725 307.367 435.457 307.519 435.19 307.697ZM439.439 299.34C439.553 299.378 439.655 299.403 439.77 299.429C444.26 300.523 450.327 300.714 452.4 300.37C451.752 300.103 450.442 299.658 447.77 299.073C444.247 298.297 441.487 298.538 439.439 299.34ZM441.042 292.19C441.614 292.407 442.263 292.534 442.873 292.598C449.208 293.348 454.805 292.458 455.644 291.669C455.428 291.478 454.576 290.931 451.408 290.32C447.223 289.532 443.573 290.575 441.042 292.19Z" fill="#263238"/>
<path d="M262.708 449.436C263.547 449.169 263.268 448.355 262.326 448.355H245.103C212.311 444.882 189.402 449.538 203.84 450.632C218.277 451.726 202.822 451.497 192.277 455.491C181.732 459.486 270.696 460.491 278.799 455.491C286.253 450.886 251.082 453.151 262.708 449.436Z" fill="#263238"/>
<path d="M386.015 454.511L236.173 449.537L229.953 304.237L406.901 308.194L386.015 454.511Z" fill="#407BFF"/>
<path d="M282.958 451.726C282.627 451.726 282.347 451.471 282.322 451.141L270.314 305.204C270.289 304.848 270.543 304.543 270.899 304.517C271.256 304.492 271.561 304.746 271.586 305.103L283.594 451.039C283.619 451.395 283.365 451.7 283.009 451.726C282.996 451.726 282.983 451.726 282.958 451.726Z" fill="#263238"/>
<path d="M386.016 454.512L426.287 448.381L438.969 313.27L406.902 308.194L386.016 454.512Z" fill="#407BFF"/>
<path opacity="0.2" d="M386.016 454.512L426.287 448.381L438.969 313.27L406.902 308.194L386.016 454.512Z" fill="black"/>
<path d="M248.969 421.526L245.28 335.201C244.898 326.195 252.2 318.727 261.218 318.931L373.23 321.437C382.58 321.64 389.652 329.985 388.329 339.246L375.914 426.246C374.795 434.133 367.913 439.908 359.951 439.641L264.055 436.461C255.888 436.194 249.325 429.68 248.969 421.526Z" fill="#263238"/>
<path d="M261.079 345.429L278.404 345.976L278.264 350.441L267.414 350.097L267.312 353.418L277.374 353.736L277.234 358.01L267.172 357.692L267.045 361.813L278.213 362.17L278.061 366.915L260.418 366.355L261.079 345.429Z" fill="white"/>
<path d="M281.623 367.029L282.284 346.103L293.058 346.446C295.055 346.51 296.582 346.726 297.625 347.107C298.668 347.489 299.507 348.151 300.118 349.092C300.741 350.046 301.021 351.178 300.983 352.514C300.945 353.672 300.665 354.664 300.143 355.491C299.622 356.318 298.922 356.979 298.032 357.475C297.472 357.793 296.709 358.048 295.73 358.226C296.493 358.506 297.04 358.785 297.383 359.053C297.612 359.231 297.943 359.612 298.388 360.185C298.82 360.757 299.113 361.202 299.253 361.508L302.191 367.677L294.89 367.449L291.634 360.948C291.227 360.108 290.845 359.561 290.514 359.294C290.056 358.951 289.535 358.773 288.95 358.76L288.377 358.747L288.11 367.245L281.623 367.029ZM288.517 354.791L291.239 354.88C291.532 354.893 292.104 354.816 292.957 354.651C293.389 354.575 293.745 354.371 294.025 354.028C294.305 353.684 294.458 353.29 294.47 352.832C294.496 352.158 294.292 351.636 293.872 351.255C293.453 350.873 292.651 350.669 291.481 350.631L288.644 350.542L288.517 354.791Z" fill="white"/>
<path d="M304.365 367.754L305.027 346.828L315.801 347.172C317.798 347.235 319.324 347.451 320.367 347.833C321.41 348.215 322.25 348.876 322.86 349.818C323.483 350.772 323.763 351.904 323.725 353.24C323.687 354.397 323.407 355.389 322.886 356.216C322.364 357.043 321.664 357.705 320.774 358.201C320.214 358.519 319.451 358.773 318.472 358.951C319.235 359.231 319.782 359.511 320.125 359.778C320.354 359.956 320.685 360.338 321.13 360.91C321.563 361.483 321.855 361.928 321.995 362.233L324.933 368.403L317.632 368.174L314.376 361.674C313.969 360.834 313.587 360.287 313.257 360.02C312.799 359.676 312.277 359.498 311.692 359.486L311.12 359.473L310.852 367.971L304.365 367.754ZM311.247 355.504L313.969 355.593C314.261 355.606 314.834 355.529 315.686 355.364C316.119 355.288 316.475 355.084 316.755 354.741C317.034 354.397 317.187 354.003 317.2 353.545C317.225 352.871 317.022 352.349 316.602 351.967C316.182 351.586 315.381 351.382 314.211 351.344L311.374 351.255L311.247 355.504Z" fill="white"/>
<path d="M326.041 357.984C326.155 354.562 327.186 351.942 329.145 350.097C331.104 348.253 333.787 347.388 337.184 347.489C340.669 347.604 343.315 348.622 345.146 350.555C346.965 352.489 347.83 355.135 347.729 358.506C347.652 360.948 347.169 362.946 346.304 364.485C345.426 366.024 344.205 367.207 342.615 368.021C341.025 368.848 339.079 369.217 336.751 369.141C334.385 369.064 332.452 368.632 330.925 367.83C329.399 367.029 328.191 365.795 327.275 364.141C326.372 362.475 325.952 360.427 326.041 357.984ZM332.503 358.213C332.439 360.325 332.783 361.852 333.533 362.806C334.284 363.76 335.339 364.243 336.688 364.294C338.074 364.332 339.168 363.925 339.957 363.035C340.745 362.157 341.178 360.541 341.254 358.201C341.318 356.229 340.962 354.779 340.198 353.85C339.435 352.921 338.367 352.425 337.006 352.387C335.695 352.349 334.64 352.769 333.826 353.672C333.012 354.562 332.566 356.076 332.503 358.213Z" fill="white"/>
<path d="M350.959 369.23L351.62 348.304L362.394 348.647C364.391 348.711 365.918 348.927 366.961 349.309C368.004 349.69 368.843 350.352 369.454 351.293C370.077 352.247 370.357 353.379 370.319 354.715C370.281 355.873 370.001 356.865 369.479 357.692C368.958 358.519 368.258 359.18 367.368 359.676C366.808 359.994 366.045 360.249 365.065 360.427C365.829 360.707 366.376 360.987 366.719 361.254C366.948 361.432 367.279 361.814 367.724 362.386C368.156 362.958 368.449 363.404 368.589 363.709L371.527 369.879L364.226 369.65L360.97 363.149C360.563 362.31 360.181 361.763 359.85 361.496C359.392 361.152 358.871 360.974 358.286 360.961L357.713 360.948L357.446 369.446L350.959 369.23ZM357.841 356.992L360.563 357.081C360.855 357.094 361.428 357.018 362.28 356.852C362.712 356.776 363.068 356.572 363.348 356.229C363.628 355.885 363.781 355.491 363.793 355.033C363.819 354.359 363.615 353.837 363.196 353.456C362.776 353.074 361.974 352.871 360.804 352.832L357.968 352.743L357.841 356.992Z" fill="white"/>
<path d="M361.248 404.798C360.79 404.798 360.345 404.62 360.014 404.251L349.126 392.331L337.373 403.068C336.686 403.691 335.63 403.64 335.019 402.966L324.131 391.047L312.378 401.783C311.691 402.406 310.635 402.356 310.025 401.681L299.136 389.762L287.383 400.498C287.052 400.804 286.62 400.956 286.187 400.931C285.742 400.905 285.322 400.715 285.03 400.384L274.141 388.464L262.388 399.201C261.714 399.824 260.646 399.773 260.035 399.099C259.412 398.412 259.463 397.356 260.137 396.746L273.124 384.877C273.798 384.253 274.867 384.304 275.477 384.979L286.365 396.898L298.119 386.162C298.449 385.856 298.882 385.704 299.314 385.729C299.76 385.755 300.179 385.945 300.472 386.276L311.36 398.196L323.113 387.459C323.788 386.836 324.856 386.887 325.467 387.561L336.355 399.481L348.108 388.744C348.782 388.121 349.838 388.172 350.461 388.846L362.482 401.999C363.105 402.686 363.054 403.742 362.38 404.353C362.049 404.645 361.642 404.798 361.248 404.798Z" fill="white"/>
<path d="M159.955 457.59L151.992 453.799L144.895 419.236L148.749 415L159.955 457.59Z" fill="#407BFF"/>
<path d="M159.954 457.59L170.512 451.42L161.468 422.951L148.748 415L159.954 457.59Z" fill="#407BFF"/>
<path opacity="0.2" d="M159.954 457.59L170.512 451.42L161.468 422.951L148.748 415L159.954 457.59Z" fill="black"/>
<path d="M333.201 463.875C332.896 463.875 332.603 463.875 332.323 463.862C328.813 463.76 326.04 460.835 326.141 457.323C326.243 453.812 329.143 451.052 332.679 451.141C342.474 451.459 363.22 445.442 375.062 433.942C375.8 433.23 376.691 432.708 377.67 432.416C397.755 426.386 405.222 438.56 405.54 439.081L394.588 445.556C394.588 445.556 394.626 445.646 394.74 445.785C394.613 445.62 391.777 441.918 382.72 444.208C367.825 457.794 345.005 463.875 333.201 463.875Z" fill="#263238"/>
<path d="M332.49 472.334L309.327 470.871L307.508 428.166L338.634 429.324L332.49 472.334Z" fill="#407BFF"/>
<path d="M332.49 472.333L337.909 466.939L341.267 440.314L338.634 429.323L332.49 472.333Z" fill="#407BFF"/>
<path opacity="0.2" d="M332.49 472.333L337.909 466.939L341.267 440.314L338.634 429.323L332.49 472.333Z" fill="black"/>
<path d="M466.71 456.153C465.909 456.153 465.094 455.898 464.408 455.377C451.191 445.327 433.307 427.48 426.451 410.268C426.349 410.014 426.273 409.759 426.235 409.492C422.889 389.609 419.697 347.744 419.557 345.976C419.391 343.877 420.969 342.045 423.068 341.879C425.166 341.727 426.998 343.291 427.163 345.39C427.202 345.823 430.42 388.095 433.689 407.813C440.532 424.554 459.078 441.74 469.025 449.296C470.704 450.568 471.035 452.96 469.75 454.639C468.999 455.644 467.867 456.153 466.71 456.153Z" fill="#263238"/>
<path d="M484.352 458.086C481.401 458.086 478.056 456.751 474.418 454.117C472.714 452.884 472.332 450.492 473.566 448.787C474.8 447.083 477.191 446.701 478.895 447.935C482.05 450.212 483.767 450.466 484.365 450.466C486.477 450.466 488.181 452.171 488.181 454.283C488.168 456.382 486.451 458.086 484.352 458.086Z" fill="#263238"/>
<path d="M475.476 454.003C479.559 441.867 496.298 444.271 502.06 446.065C507.823 447.871 513.012 450.135 516.141 452.171C519.258 454.206 519.309 457.628 515.149 459.574C510.01 461.979 497.138 459.842 497.138 459.842C503.803 462.755 497.125 467.436 485.423 462.844C481.632 461.355 474.038 458.442 475.476 454.003Z" fill="#407BFF"/>
<path d="M434.846 351.204C433.333 361.508 424.797 369.115 417.852 368.085C410.907 367.067 410.627 357.857 412.141 347.553C413.655 337.249 416.402 329.744 423.347 330.761C430.28 331.792 436.36 340.9 434.846 351.204Z" fill="#263238"/>
<path d="M266.969 310.064C267.545 310.064 268.012 309.597 268.012 309.021C268.012 308.445 267.545 307.978 266.969 307.978C266.393 307.978 265.926 308.445 265.926 309.021C265.926 309.597 266.393 310.064 266.969 310.064Z" fill="#263238"/>
<path d="M277.565 316.539C277.565 317.112 277.094 317.582 276.522 317.582C275.949 317.582 275.479 317.112 275.479 316.539C275.479 315.967 275.949 315.496 276.522 315.496C277.094 315.496 277.565 315.954 277.565 316.539Z" fill="#263238"/>
<path d="M278.721 439.806C278.721 440.378 278.25 440.849 277.678 440.849C277.105 440.849 276.635 440.378 276.635 439.806C276.635 439.233 277.105 438.763 277.678 438.763C278.263 438.763 278.721 439.233 278.721 439.806Z" fill="#263238"/>
<path d="M288.287 447.312C288.287 447.884 287.817 448.355 287.244 448.355C286.672 448.355 286.201 447.884 286.201 447.312C286.201 446.739 286.672 446.269 287.244 446.269C287.817 446.269 288.287 446.739 288.287 447.312Z" fill="#263238"/>
<path d="M104.952 459.829C101.924 459.829 97.8285 457.997 95.6279 454.804C95.4244 454.512 95.5007 454.117 95.7933 453.914C96.0859 453.71 96.4802 453.787 96.6837 454.079C99.0623 457.501 104.29 459.333 106.618 458.252C106.86 458.137 107.063 457.997 107.216 457.819C105.143 456.865 103.247 454.982 102.726 452.12C102.433 450.504 102.204 448.329 103.54 448.024C105.359 447.617 107.75 452.031 108.666 455.377C108.831 456 108.895 456.572 108.831 457.081C109.633 457.298 110.421 457.361 111.108 457.259C111.655 457.183 112.444 456.954 112.851 456.305C111.312 455.262 110.269 453.418 109.925 450.975C109.429 447.502 109.798 446.892 110.192 446.599C110.447 446.408 110.765 446.37 111.07 446.497C112.431 447.082 114.085 452.006 114.39 454.804C114.428 455.109 114.428 455.402 114.39 455.682C114.911 455.885 115.484 456 116.107 456.013C117.214 456.076 118.295 455.72 119.173 455.211C118.995 455.097 118.816 454.97 118.664 454.83C117.341 453.697 116.807 451.904 117.036 449.321C117.214 447.324 117.659 446.243 118.46 445.899C118.74 445.772 119.313 445.658 119.999 446.205C121.373 447.299 122.658 450.784 122.2 453.278C122.098 453.799 121.882 454.283 121.564 454.741C123.892 455.148 127.186 454.486 130.01 453.787C130.354 453.697 130.697 453.914 130.786 454.257C130.875 454.601 130.659 454.944 130.315 455.033C126.868 455.885 123.154 456.572 120.534 455.822C119.363 456.751 117.723 457.31 116.082 457.298C115.331 457.285 114.632 457.145 113.996 456.903C113.5 457.755 112.558 458.328 111.299 458.519C110.459 458.646 109.455 458.57 108.45 458.277C108.157 458.76 107.737 459.142 107.165 459.409C106.529 459.689 105.779 459.829 104.952 459.829ZM103.858 449.296C103.781 449.487 103.654 450.136 103.96 451.891C104.379 454.232 105.893 455.784 107.572 456.611C107.559 456.343 107.508 456.038 107.419 455.707C106.427 452.069 104.519 449.563 103.858 449.296ZM110.943 448.189C110.93 448.673 110.981 449.474 111.172 450.81C111.426 452.629 112.1 454.015 113.105 454.906C112.8 452.349 111.668 449.398 110.943 448.189ZM118.944 447.083C118.944 447.083 118.46 447.324 118.282 449.449C118.091 451.586 118.486 453.036 119.465 453.876C119.694 454.066 119.949 454.232 120.228 454.359C120.585 453.965 120.839 453.519 120.915 453.049C121.259 451.204 120.381 448.507 119.389 447.413C119.147 447.133 118.982 447.083 118.944 447.083Z" fill="#263238"/>
<path d="M291.122 469.446L294.57 463.467L291.122 457.488H287.434L289.52 463.467L287.434 469.446H291.122Z" fill="#263238"/>
<path d="M287.676 466.584C285.958 466.584 284.559 465.185 284.559 463.468C284.559 461.75 285.958 460.364 287.676 460.364L281.812 459.193L280.26 463.926L282.88 467.92L287.676 466.584Z" fill="#263238"/>
<path d="M288.184 457.488H281.277L277.83 463.467L281.277 469.446H288.184L291.631 463.467L288.184 457.488ZM284.737 466.584C283.02 466.584 281.621 465.185 281.621 463.467C281.621 461.75 283.02 460.363 284.737 460.363C286.454 460.363 287.841 461.75 287.841 463.467C287.841 465.185 286.454 466.584 284.737 466.584Z" fill="#407BFF"/>
<path d="M531.555 457.081L528.998 452.642L531.555 448.202H534.29L532.75 452.642L534.29 457.081H531.555Z" fill="#407BFF"/>
<path d="M534.111 454.957C535.383 454.957 536.426 453.914 536.426 452.642C536.426 451.37 535.383 450.34 534.111 450.34L538.462 449.475L539.619 452.986L537.673 455.95L534.111 454.957Z" fill="#407BFF"/>
<path d="M533.742 448.202H538.868L541.425 452.642L538.868 457.081H533.742L531.186 452.642L533.742 448.202ZM536.299 454.957C537.571 454.957 538.614 453.914 538.614 452.642C538.614 451.37 537.571 450.339 536.299 450.339C535.027 450.339 533.997 451.37 533.997 452.642C533.997 453.914 535.027 454.957 536.299 454.957Z" fill="#263238"/>
<path d="M436.232 462.984H441.981C443.482 462.984 444.703 461.762 444.703 460.261C444.703 458.76 443.482 457.539 441.981 457.539H436.232C434.731 457.539 433.51 458.76 433.51 460.261C433.51 461.75 434.731 462.984 436.232 462.984Z" fill="#263238"/>
<path d="M427.048 457.845C428.473 454.83 431.907 453.469 434.731 454.804C437.555 456.14 438.7 459.651 437.275 462.666C435.851 465.681 432.416 467.042 429.592 465.706C426.769 464.371 425.624 460.86 427.048 457.845Z" fill="#407BFF"/>
<path d="M428.66 465.674L430.236 466.417L435.716 454.796L434.139 454.052L428.66 465.674Z" fill="#263238"/>
</svg>
